<svg width="1920" height="638" viewBox="0 0 1920 638" fill="none" xmlns="http://www.w3.org/2000/svg">
<g clip-path="url(#clip0)">
<path d="M475.712 157.094C480.23 152.849 479.545 149.206 481.356 151.793L871.134 433.266L359.563 1145.17C359.494 1130.8 357.15 1100.36 348.324 1093.57C337.291 1085.1 341.443 1086.98 339.216 1070.5C336.988 1054.03 335.873 1050.47 333.694 1027.97C331.515 1005.47 313.388 994.095 312.179 983.861C310.971 973.627 307.652 955.265 306.04 944.741C304.428 934.217 299.186 921.085 293.612 912.671C288.037 904.258 294.564 895.175 295.469 874.34C296.374 853.504 289.667 802.407 289.647 782.009C289.626 761.61 284.833 761.471 282.298 742.019C279.762 722.568 279.049 728.667 283.085 712.836C287.122 697.005 295.406 680.37 295.739 675.651C296.072 670.932 297.924 660.694 298.473 642.908C299.022 625.122 293.825 624.693 292.498 615.475C291.171 606.258 303.031 593.374 306.196 576.837C308.861 562.915 308.173 561.319 310.618 555.363C313.063 549.407 306.557 545.694 305.966 532.048C305.375 518.401 304.288 521.616 305.881 502.376C307.155 486.985 304.602 487.134 301.585 476.011C303.145 470.153 307.203 457.129 310.962 451.898L318.011 442.088C322.189 436.275 324.686 429.395 325.161 425.329C325.637 421.263 323.953 415.095 323.807 409.341C323.656 403.433 325.683 400.772 332.47 391.326C339.258 381.88 348.94 379.471 354.613 366.47C360.287 353.468 359.599 351.872 367.455 342.642C375.31 333.412 374.884 331.453 377.543 321.794C380.202 312.136 383.025 314.165 382.885 304.147C382.744 294.129 385.495 300.514 385.805 294.125C386.114 287.736 388.938 289.765 398.81 281.985C408.683 274.204 409.133 277.833 417.656 249.801C422.926 236.509 422.598 235.932 422.908 230.576C423.337 223.171 426.992 218.084 432.307 217.497C438.415 216.821 435.98 218.343 446.065 216.225C456.15 214.106 456.843 211.439 460.304 206.623C461.539 199.798 458.597 198.786 460.946 195.516L472.172 179.893C474 177.35 472.197 172.198 471.225 169.296C470.253 166.393 470.063 162.401 475.712 157.094Z" fill="#CFC2FF"/>
<path d="M487.326 149.727C481.241 150.919 478.683 148.237 479.727 151.217L480.849 632H1357.5C1345.87 623.556 1322.51 603.888 1322.16 592.763C1321.71 578.856 1320.81 583.326 1308.73 571.902C1296.65 560.479 1294.42 557.498 1277.42 542.598C1260.42 527.698 1261.76 506.341 1254.15 499.387C1246.55 492.434 1233.57 479.024 1225.97 471.573C1218.36 464.123 1210.76 452.203 1207.18 442.766C1203.6 433.329 1192.41 433.329 1174.96 421.906C1157.52 410.482 1119.94 375.218 1103.38 363.298C1086.83 351.378 1089.51 347.404 1075.2 333.994C1060.88 320.584 1066.25 323.564 1051.04 317.604C1035.83 311.643 1017.48 308.663 1013.46 306.18C1009.43 303.697 1000.04 299.227 985.271 289.293C970.507 279.359 973.192 274.889 966.481 268.433C959.77 261.976 942.386 264.088 927.11 257.009C914.25 251.049 913.355 249.559 907.091 248.069C900.828 246.579 901.609 239.129 890.872 230.685C880.134 222.242 883.38 223.235 866.826 213.301C853.583 205.355 855.194 203.368 847.922 194.428C842.255 192.275 829.311 187.971 822.868 187.971H810.789C803.631 187.971 796.586 185.984 793.007 183.997C789.428 182.011 785.401 177.044 780.814 173.567C776.104 169.998 772.761 170.091 761.129 170.091C749.496 170.091 741.891 176.547 728.022 173.567C714.153 170.587 713.258 169.097 701.178 170.091C689.099 171.084 687.757 169.594 678.361 166.117C668.966 162.64 668.966 166.117 660.913 160.157C652.86 154.197 656.439 160.157 651.071 156.68C645.702 153.203 645.702 156.68 633.622 160.157C621.543 163.634 624.227 166.117 596.489 156.68C582.62 153.203 582.342 152.601 577.812 149.727C571.549 145.753 565.285 145.753 561.706 149.727C557.593 154.292 560.25 153.204 552.645 160.157C545.039 167.111 542.468 166.117 536.539 166.117C530.275 163.137 531.17 160.157 527.143 160.157H507.906C504.774 160.157 501.642 155.687 499.853 153.204C498.063 150.72 494.931 148.237 487.326 149.727Z" fill="#CFC2FF"/>
<path d="M720.722 102H725.728V173.567L720.722 172.6V102Z" fill="#CFC2FF"/>
<path d="M777.792 130.837V135.809H748.756V130.837L777.792 130.837Z" fill="#CFC2FF"/>
<path d="M740.746 119.899V124.871L705.703 124.871V119.899L740.746 119.899Z" fill="#CFC2FF"/>
<path d="M700.697 132.826V137.797H671.662V132.826L700.697 132.826Z" fill="#CFC2FF"/>
<path d="M760.771 116.916H765.777V187.516H760.771V116.916Z" fill="#CFC2FF"/>
<path d="M683.677 117.91H688.683V188.51H683.677V117.91Z" fill="#CFC2FF"/>
<path d="M731.735 122.385C731.735 127.053 727.925 130.837 723.225 130.837C718.525 130.837 714.714 127.053 714.714 122.385C714.714 117.717 718.525 113.932 723.225 113.932C727.925 113.932 731.735 117.717 731.735 122.385Z" fill="#CFC2FF"/>
<path d="M308.67 661.5V574.5L310.67 572.5V561.5H309.17V558.5L308.36 558.47C308.36 558.16 308.35 550.78 310.56 550.78V549.15H307.14C307.14 549.15 305.9 544.59 306.49 541.96C307.07 541.26 307.43 540.37 307.43 539.39H305.38V537.29C306.37 536.78 307.03 535.91 307.03 534.92C307.03 533.93 306.37 533.06 305.38 532.55V529.91C306.37 529.33 307.03 528.33 307.03 527.2H304.59V524.76H307.03V522.32H304.59V519.88H302.15V522.32H299.71V524.76H302.15V527.2H299.71C299.71 528.33 300.37 529.33 301.36 529.91V532.55C300.37 533.06 299.71 533.93 299.71 534.92C299.71 535.91 300.37 536.78 301.36 537.29V539.39H299.31C299.31 540.37 299.67 541.25 300.25 541.96C300.84 544.58 299.6 549.15 299.6 549.15H296.18V550.78C298.14 550.78 298.36 556.56 298.38 558.11L295.18 558L275.18 542H262.18V467L270.18 459H264.18V446H262.53C262.56 444.39 262.8 439.32 264.58 439.32V437.81H261.39C261.39 437.81 260.24 433.56 260.79 431.12C261.33 430.47 261.66 429.64 261.66 428.73H259.75V426.78C260.67 426.31 261.28 425.5 261.28 424.57C261.28 423.64 260.67 422.84 259.75 422.36V419.91C260.67 419.37 261.28 418.44 261.28 417.39H259.01V415.12H261.28V412.85H259.01V410.58H256.74V412.85H254.47V415.12H256.74V417.39H254.47C254.47 418.45 255.08 419.37 256 419.91V422.36C255.08 422.83 254.47 423.64 254.47 424.57C254.47 425.5 255.08 426.3 256 426.78V428.73H254.09C254.09 429.64 254.43 430.47 254.96 431.12C255.51 433.56 254.36 437.81 254.36 437.81H251.17V439.32C252.94 439.32 253.18 444.39 253.22 446H250.17L249.67 426.5H248.21C248.21 425.76 247.72 425.11 246.98 424.72V422.75C247.72 422.31 248.21 421.57 248.21 420.72H246.39V418.9H248.21V417.08H246.39V415.26H244.57V417.08H242.75V418.9H244.57V420.72H242.75C242.75 421.57 243.24 422.31 243.98 422.75V424.72C243.24 425.1 242.75 425.75 242.75 426.5H237.44C237.44 425.76 236.95 425.11 236.21 424.72V422.75C236.95 422.31 237.44 421.57 237.44 420.72H235.62V418.9H237.44V417.08H235.62V415.26H233.8V417.08H231.98V418.9H233.8V420.72H231.98C231.98 421.57 232.47 422.31 233.21 422.75V424.72C232.47 425.1 231.98 425.75 231.98 426.5H226.67C226.67 425.76 226.18 425.11 225.44 424.72V422.75C226.18 422.31 226.67 421.57 226.67 420.72H224.85V418.9H226.67V417.08H224.85V415.26H223.03V417.08H221.21V418.9H223.03V420.72H221.21C221.21 421.57 221.7 422.31 222.44 422.75V424.72C221.7 425.1 221.21 425.75 221.21 426.5H217.71V392.5H216.89C216.89 392.5 216.82 383 219.6 383V381H215.39C215.39 381 213.86 375.39 214.59 372.16C215.3 371.3 215.74 370.21 215.74 369H213.21V366.42C214.43 365.79 215.24 364.72 215.24 363.5C215.24 362.28 214.43 361.21 213.21 360.58V357.34C214.43 356.62 215.24 355.4 215.24 354H212.24V351H215.24V348H212.24V345H209.24V348H206.24V351H209.24V354H206.24C206.24 355.4 207.05 356.62 208.27 357.34V360.58C207.05 361.21 206.24 362.28 206.24 363.5C206.24 364.72 207.05 365.79 208.27 366.42V369H205.74C205.74 370.2 206.18 371.29 206.89 372.16C207.62 375.39 206.09 381 206.09 381H201.88V383C204.67 383 204.59 392.5 204.59 392.5H203.7V429.5H199.7V356.5H198.88C198.88 356.5 198.81 347 201.59 347V345H197.38C197.38 345 195.85 339.39 196.58 336.16C197.29 335.3 197.73 334.21 197.73 333H195.2V330.42C196.42 329.79 197.23 328.72 197.23 327.5C197.23 326.28 196.42 325.21 195.2 324.58V321.34C196.42 320.62 197.23 319.4 197.23 318H194.23V315H197.23V312H194.23V309H191.23V312H188.23V315H191.23V318H188.23C188.23 319.4 189.04 320.62 190.26 321.34V324.58C189.04 325.21 188.23 326.28 188.23 327.5C188.23 328.72 189.04 329.79 190.26 330.42V333H187.73C187.73 334.2 188.17 335.29 188.88 336.16C189.61 339.39 188.08 345 188.08 345H183.87V347C186.66 347 186.58 356.5 186.58 356.5H185.69V430.5H181.69V238.5H181.07C181.07 238.5 181 229 183.58 229V227H179.68C179.68 227 178.27 221.39 178.94 218.16C179.6 217.3 180.01 216.21 180.01 215H177.67V212.42C178.8 211.79 179.55 210.72 179.55 209.5C179.55 208.28 178.8 207.21 177.67 206.58V203.34C178.8 202.62 179.55 201.4 179.55 200H176.77V197H179.55V194H176.77V191H173.99V194H171.21V197H173.99V200H171.21C171.21 201.4 171.96 202.62 173.09 203.34V206.58C171.96 207.21 171.21 208.28 171.21 209.5C171.21 210.72 171.96 211.79 173.09 212.42V215H170.75C170.75 216.2 171.16 217.29 171.82 218.16C172.5 221.39 171.08 227 171.08 227H167.18V229C169.76 229 169.69 238.5 169.69 238.5H168.68V261.5H164.68V194.5L169.68 189.5L167.68 180.5L172.68 175.5L162.68 147.5L154.68 141.5L138.68 47.5V37.5L138.6 37.43V24.68C140.41 24.09 141.87 22.74 142.6 21H154.1V17H142.9C142.38 14.79 140.72 13.01 138.58 12.32V3H134.58V12.32C132.44 13.01 130.78 14.79 130.26 17H119.08V21H130.58C131.31 22.74 132.77 24.1 134.58 24.68V37.43L134.5 37.5V47.5L118.5 141.5L110.5 147.5L100.5 175.5L105.5 180.5L103.5 189.5L108.5 194.5V261.5H104.5V238.5H103.49C103.49 238.5 103.42 229 106 229V227H102.1C102.1 227 100.69 221.39 101.36 218.16C102.02 217.3 102.43 216.21 102.43 215H100.09V212.42C101.22 211.79 101.97 210.72 101.97 209.5C101.97 208.28 101.22 207.21 100.09 206.58V203.34C101.22 202.62 101.97 201.4 101.97 200H99.19V197H101.97V194H99.19V191H96.41V194H93.63V197H96.41V200H93.63C93.63 201.4 94.38 202.62 95.51 203.34V206.58C94.38 207.21 93.63 208.28 93.63 209.5C93.63 210.72 94.38 211.79 95.51 212.42V215H93.17C93.17 216.2 93.58 217.29 94.24 218.16C94.92 221.39 93.5 227 93.5 227H89.6V229C92.18 229 92.11 238.5 92.11 238.5H91.5V430.5H87.5V356.5H86.61C86.61 356.5 86.54 347 89.32 347V345H85.11C85.11 345 83.58 339.39 84.31 336.16C85.02 335.3 85.46 334.21 85.46 333H82.96V330.41C84.17 329.78 84.96 328.72 84.96 327.5C84.96 326.28 84.16 325.22 82.96 324.59V322H82.94V321.34C84.16 320.62 84.97 319.4 84.97 318H81.97V315H84.97V312H81.97V309H78.97V312H75.97V315H78.97V318H75.97C75.97 319.4 76.78 320.62 78 321.34V324.58C76.78 325.21 75.97 326.28 75.97 327.5C75.97 328.72 76.78 329.79 78 330.42V333H75.47C75.47 334.2 75.91 335.29 76.62 336.16C77.35 339.39 75.82 345 75.82 345H71.61V347C74.4 347 74.32 356.5 74.32 356.5H73.5V429.5H69.5V392.5H68.61C68.61 392.5 68.54 383 71.32 383V381H67.11C67.11 381 65.58 375.39 66.31 372.16C67.02 371.3 67.46 370.21 67.46 369H64.93V366.42C66.15 365.79 66.96 364.72 66.96 363.5C66.96 362.28 66.15 361.21 64.93 360.58V357.34C66.15 356.62 66.96 355.4 66.96 354H63.96V351H66.96V348H63.96V345H60.96V348H57.96V351H60.96V354H57.96C57.96 355.4 58.77 356.62 59.99 357.34V360.58C58.77 361.21 57.96 362.28 57.96 363.5C57.96 364.72 58.77 365.79 59.99 366.42V369H57.46C57.46 370.2 57.9 371.29 58.61 372.16C59.34 375.39 57.81 381 57.81 381H53.6V383C56.39 383 56.31 392.5 56.31 392.5H55.5V426.5H52C52 425.76 51.51 425.11 50.77 424.72V422.75C51.51 422.31 52 421.57 52 420.72H50.18V418.9H52V417.08H50.18V415.26H48.36V417.08H46.54V418.9H48.36V420.72H46.54C46.54 421.57 47.03 422.31 47.77 422.75V424.72C47.03 425.1 46.54 425.75 46.54 426.5H41.23C41.23 425.76 40.74 425.11 40 424.72V422.75C40.74 422.31 41.23 421.57 41.23 420.72H39.41V418.9H41.23V417.08H39.41V415.26H37.59V417.08H35.77V418.9H37.59V420.72H35.77C35.77 421.57 36.26 422.31 37 422.75V424.72C36.26 425.1 35.77 425.75 35.77 426.5H30.46C30.46 425.76 29.97 425.11 29.23 424.72V422.75C29.97 422.31 30.46 421.57 30.46 420.72H28.64V418.9H30.46V417.08H28.64V415.26H26.82V417.08H25V418.9H26.82V420.72H25C25 421.57 25.49 422.31 26.23 422.75V424.72C25.49 425.1 25 425.75 25 426.5H23.5L23 446H19.95C19.98 444.39 20.22 439.32 22 439.32V437.81H18.81C18.81 437.81 17.66 433.56 18.21 431.12C18.75 430.47 19.08 429.64 19.08 428.73H17.17V426.78C18.09 426.31 18.7 425.5 18.7 424.57C18.7 423.64 18.09 422.84 17.17 422.36V419.91C18.09 419.37 18.7 418.44 18.7 417.39H16.43V415.12H18.7V412.85H16.43V410.58H14.16V412.85H11.9V415.12H14.17V417.39H11.9C11.9 418.45 12.51 419.37 13.43 419.91V422.36C12.51 422.83 11.9 423.64 11.9 424.57C11.9 425.5 12.51 426.3 13.43 426.78V428.73H11.52C11.52 429.64 11.86 430.47 12.39 431.12C12.94 433.56 11.79 437.81 11.79 437.81H8.6V439.32C10.37 439.32 10.61 444.39 10.65 446H9V459H3L11 467V542H-2L-22 558L-25.2 558.11C-25.18 556.56 -24.96 550.78 -23 550.78V549.15H-26.42C-26.42 549.15 -27.66 544.59 -27.07 541.96C-26.49 541.26 -26.13 540.37 -26.13 539.39H-28.18V537.29C-27.19 536.78 -26.53 535.91 -26.53 534.92C-26.53 533.93 -27.19 533.06 -28.18 532.55V529.91C-27.19 529.33 -26.53 528.33 -26.53 527.2H-28.98V524.76H-26.54V522.32H-28.98V519.88H-31.42V522.32H-33.85V524.76H-31.41V527.2H-33.85C-33.85 528.33 -33.19 529.33 -32.2 529.91V532.55C-33.19 533.06 -33.85 533.93 -33.85 534.92C-33.85 535.91 -33.19 536.78 -32.2 537.29V539.39H-34.26C-34.26 540.37 -33.9 541.25 -33.32 541.96C-32.73 544.58 -33.97 549.15 -33.97 549.15H-37.39V550.78C-35.17 550.78 -35.18 558.16 -35.19 558.47L-36 558.5V561.5H-37.5V572.5L-35.5 574.5V661.5L-38.5 664.5V672.5V673.5H135.5H137.67H311.67V672.5V664.5L308.67 661.5ZM62.61 358H62.47H62.33V357.99C62.38 357.99 62.42 358 62.47 358C62.52 358 62.56 357.99 62.61 357.99V358ZM80.61 322H80.47H80.33V321.99C80.38 321.99 80.42 322 80.47 322C80.52 322 80.56 321.99 80.61 321.99V322ZM97.94 204H97.81H97.68V203.99C97.73 203.99 97.77 204 97.81 204C97.86 204 97.9 203.99 97.94 203.99V204ZM175.36 204C175.41 204 175.45 203.99 175.49 203.99V204H175.36H175.23V203.99C175.28 203.99 175.32 204 175.36 204ZM192.85 322H192.71H192.57V321.99C192.62 321.99 192.66 322 192.71 322C192.76 322 192.8 321.99 192.85 321.99V322ZM210.85 358H210.71H210.57V357.99C210.62 357.99 210.66 358 210.71 358C210.76 358 210.8 357.99 210.85 357.99V358ZM223.99 424.38C223.98 424.38 223.97 424.38 223.96 424.38V423.15C223.97 423.15 223.98 423.15 223.99 423.15V424.38Z" fill="#AA92FF"/>
<path d="M1692.17 98.8575C1692.17 98.8575 1688.64 99.3362 1684.98 99.6849C1681.31 100.027 1677.01 100.588 1675.3 101.128C1673.45 101.716 1672.46 101.668 1670.39 102.092C1668.71 102.434 1654.63 103.747 1651.86 102.988C1649.09 102.229 1649.09 103.453 1648.61 103.254C1648.13 103.056 1645.57 100.615 1643.22 100.786C1640.87 100.957 1639.21 100.376 1638.76 100.341C1638.32 100.307 1638.17 100.998 1638.76 101.442C1639.35 101.887 1639.63 101.723 1639.59 101.976C1639.55 102.236 1639.17 102.29 1638.72 102.222C1638.2 102.147 1634.48 101.771 1634 101.989C1633.52 102.215 1633.69 102.543 1633.69 102.543C1633.69 102.543 1632.76 102.502 1632.57 102.783C1632.38 103.056 1632.6 103.576 1633.05 103.576C1633.05 103.576 1632.74 104.266 1633.29 104.335C1633.84 104.403 1634.92 104.677 1634.92 104.677C1634.92 104.677 1634.61 105.121 1635.19 105.333C1635.78 105.538 1637.61 105.955 1638.68 106.229C1639.75 106.503 1643.67 106.817 1645.6 106.762C1647.51 106.708 1649.23 106.708 1649.64 107.125C1650.05 107.535 1655.03 118.004 1658.43 118.825C1661.82 119.645 1667.97 117.997 1673.08 119.721C1678.2 121.444 1680.83 121.786 1680.75 123.509C1680.68 125.232 1679.99 141.548 1680.2 143.059C1680.4 144.57 1680.68 144.782 1681.3 144.782C1681.93 144.782 1680.75 147.333 1681.16 147.812C1681.58 148.29 1682.76 148.366 1682.96 149.603C1683.17 150.841 1681.86 156.353 1682.41 159.997C1682.96 163.649 1683.03 168.531 1682.89 171.219C1682.75 173.906 1682.26 188.977 1682.26 190.701C1682.26 192.424 1681.99 206.394 1681.99 206.394H1674.95C1674.95 206.394 1664.72 209.013 1664.37 209.287C1664.03 209.56 1663.96 217 1663.96 217H1692.17H1729.82V211.01L1726.3 210.08C1726.3 210.08 1720.39 208.22 1718 208.117C1715.62 208.015 1712.92 207.495 1712.92 207.495L1712.51 181.161C1712.51 181.161 1714.51 181.189 1714.51 179.766C1714.51 178.344 1714.51 167.567 1714.51 167.567C1714.51 167.567 1715.65 166.398 1715.65 164.469C1715.65 162.541 1715.69 144.229 1715.69 144.229L1715 123.714C1715 123.714 1723.43 120.275 1727.16 119.994C1730.9 119.721 1741.13 121.369 1743.21 117.102C1745.28 112.835 1745.01 108.841 1746.81 108.287C1748.61 107.733 1751.87 108.821 1754.57 108.356C1757.27 107.891 1761.52 107.015 1761.78 106.687C1762.04 106.359 1761.78 105.997 1761.78 105.997C1761.78 105.997 1763.06 106.024 1763.44 105.675C1763.82 105.326 1763.62 104.95 1763.62 104.95C1763.62 104.95 1764.37 104.923 1764.48 104.526C1764.58 104.123 1764.32 103.767 1764.07 103.767C1763.82 103.767 1763.47 103.767 1763.47 103.767C1763.47 103.767 1763.81 102.954 1763.03 102.892C1762.26 102.83 1758.46 103.282 1758.2 103.097C1757.94 102.919 1758.11 102.564 1758.23 102.502C1758.36 102.441 1759.35 102.174 1759.56 101.771C1759.77 101.367 1759.46 101.292 1758.63 101.401C1757.79 101.511 1755.76 101.702 1754.68 101.777C1753.58 101.853 1750.6 102.885 1750.16 103.378C1749.73 103.87 1748.27 104.308 1747.36 104.123C1746.46 103.945 1746.74 103.295 1743.32 104.431C1739.9 105.566 1732.74 103.658 1730.56 104.273C1728.39 104.896 1715.89 100.656 1713.45 100.246C1711.01 99.8354 1705.93 100.143 1705.67 99.6781C1705.41 99.2131 1704.69 96.5257 1705.2 94.6179C1705.72 92.71 1705.3 90.0226 1705.3 89.1952C1705.3 88.3678 1706.14 83.2597 1703.96 81.6049C1701.78 79.9501 1700.01 79.7996 1698.51 80.162C1697.01 80.5245 1694.83 82.6922 1694.36 85.0171C1693.9 87.3421 1694 90.7475 1693.74 91.4723C1693.48 92.1972 1693.22 94.2076 1693.22 95.5C1693.2 96.7924 1693.16 98.7276 1692.17 98.8575Z" fill="#CFC2FF"/>
<path d="M1213.65 486.111C1207.84 493.374 1195.7 670.982 1200.07 673.926L2026.7 673.926L2027.58 179.452C2003.58 185.847 1998.3 199.035 1990.99 199.536C1983.68 200.037 1968.02 202.949 1940.33 203.698C1912.65 204.446 1911.03 196.053 1896.39 193.838C1881.75 191.624 1863.78 210.673 1838.53 215.656C1817.26 219.851 1814.64 218.728 1805.78 222.63C1796.92 226.532 1789.94 215.998 1768.52 214.939C1747.09 213.879 1751.91 212.149 1722.15 214.572C1698.34 216.511 1698.1 212.39 1680.18 207.433C1671.31 209.905 1651.71 216.357 1644.22 222.386L1630.18 233.692C1621.85 240.391 1611.56 244.371 1605.3 245.107C1599.03 245.843 1589.09 243.076 1580.07 242.796C1570.82 242.507 1567.03 245.758 1553.51 256.645C1539.98 267.532 1537.98 283.145 1518.7 292.205C1499.42 301.264 1496.81 300.141 1483.82 312.754C1470.83 325.366 1467.69 324.662 1453.08 328.881C1438.48 333.1 1442.16 337.674 1426.49 337.369C1410.81 337.065 1421.29 341.557 1411.36 342.007C1401.44 342.457 1405.12 347.032 1394.76 362.911C1384.4 378.791 1390.15 379.546 1347.91 393.091C1328.11 401.497 1327.15 400.964 1318.84 401.423C1307.35 402.057 1300.07 407.919 1300.11 416.497C1300.17 426.353 1302.1 422.433 1300.63 438.7C1299.15 454.967 1295.11 456.066 1288.22 461.616C1277.78 463.557 1275.67 458.799 1270.98 462.567L1248.62 480.572C1244.98 483.503 1236.61 480.553 1231.89 478.961C1227.18 477.368 1220.91 477.032 1213.65 486.111Z" fill="#CFC2FF"/>
<path d="M2163.2 553.1H-213V638H2163.2V553.1Z" fill="#AA92FF"/>
<path d="M1303.5 276H1147.5V279.135H1154.61V574H1296.39V279.135H1303.5V276Z" fill="#AA92FF"/>
<path d="M593 341.7H454.9V561.1H593V341.7Z" fill="#AA92FF"/>
<path d="M434.1 454.1H196.6V561.1H434.1V454.1Z" fill="#AA92FF"/>
<path d="M1156.5 225H1104.5V612H1156.5V225Z" fill="#AA92FF"/>
<path d="M1118.7 155H1116V297.9H1118.7V155Z" fill="#AA92FF"/>
<path d="M1127.5 165.8H1124.8V308.7H1127.5V165.8Z" fill="#AA92FF"/>
<path d="M1140.4 208.8H1108.5V244H1140.4V208.8Z" fill="#AA92FF"/>
<path d="M515.5 381H424.8V561.1H515.5V381Z" fill="#AA92FF"/>
<path d="M632 271.8H461.7V642.5H632V271.8Z" fill="#AA92FF"/>
<path d="M615.3 259H478.5V320.7H615.3V259Z" fill="#AA92FF"/>
<path d="M645.2 279.5H448.5V283.8H645.2V279.5Z" fill="#AA92FF"/>
<path d="M664.8 373.9H584.5V561.1H664.8V373.9Z" fill="#AA92FF"/>
<path d="M1456.6 458H1364.5V652.3H1456.6V458Z" fill="#AA92FF"/>
<path d="M963.979 449.375H709.348V739H963.979V449.375Z" fill="#AA92FF"/>
<path d="M970.5 438.24H694.5V449.375H970.5V438.24Z" fill="#AA92FF"/>
<path d="M832.431 408H720.587V466.722H832.431V408Z" fill="#AA92FF"/>
<path d="M887.797 408H869.064V443.749H887.797V408Z" fill="#AA92FF"/>
<path d="M927.345 408H906.669V443.749H927.345V408Z" fill="#AA92FF"/>
<path d="M55.7001 485.9H-40.3999V561.1H55.7001V485.9Z" fill="#AA92FF"/>
<path d="M1543.3 574H584.5V657.3H1543.3V574Z" fill="#AA92FF"/>
<path d="M1789.6 386H1641.5V602.9H1789.6V386Z" fill="#AA92FF"/>
<path d="M1953.5 428.5H1805.4V559.9H1953.5V428.5Z" fill="#AA92FF"/>
<path d="M1314.5 409H1231.5V574H1314.5V409Z" fill="#AA92FF"/>
<path d="M1612.2 137.9H1507.5V561.1H1612.2V137.9Z" fill="#AA92FF"/>
<path d="M2030.2 561.1H1892V314H1996.8L2030.2 561.1Z" fill="#AA92FF"/>
<path d="M1588.8 49.4H1585.2V164.4H1588.8V49.4Z" fill="#AA92FF"/>
<path d="M1601 74.1H1597.4V189.1H1601V74.1Z" fill="#AA92FF"/>
<path d="M1577.7 90H1574.1V205H1577.7V90Z" fill="#AA92FF"/>
<path d="M1946.9 294H1897.5V332.9H1946.9V294Z" fill="#AA92FF"/>
<path d="M1941.5 280.1H1902.9V302H1941.5V280.1Z" fill="#AA92FF"/>
<path d="M498.7 637.9V591L556.3 426.7H613.9V637.9H498.7Z" fill="#875CFF"/>
<path d="M1765.9 599.5L1727.6 465.1H1669.9V637.9H1765.9V599.5Z" fill="#875CFF"/>
<path d="M1247.5 503.5H1228.3V522.7H1247.5V503.5Z" fill="#875CFF"/>
<path d="M1362.7 227.1H1228.3V637.9H1362.7V227.1Z" fill="#875CFF"/>
<path d="M1371.8 568.7H1219.2V572.8H1371.8V568.7Z" fill="#875CFF"/>
<path d="M1371.8 511.1H1219.2V515.2H1371.8V511.1Z" fill="#875CFF"/>
<path d="M1371.8 453.5H1219.2V457.6H1371.8V453.5Z" fill="#875CFF"/>
<path d="M1371.8 395.9H1219.2V400H1371.8V395.9Z" fill="#875CFF"/>
<path d="M1371.8 338.3H1219.2V342.4H1371.8V338.3Z" fill="#875CFF"/>
<path d="M1371.8 280.7H1219.2V284.8H1371.8V280.7Z" fill="#875CFF"/>
<path d="M1371.8 223.1H1219.2V227.2H1371.8V223.1Z" fill="#875CFF"/>
<path d="M1381.9 212H1209.1V223.2H1381.9V212Z" fill="#875CFF"/>
<path d="M1281.4 196.3H1238.7V212H1281.4V196.3Z" fill="#875CFF"/>
<path d="M1284.3 192.7H1235.8V196.3H1284.3V192.7Z" fill="#875CFF"/>
<path d="M1060.7 139V149.8L1035 157.5V150.5H1021V161.6L995.3 169.3V161.2H981.3V173.4L955.6 181V174.4H941.6V185.2L915.9 192.8V187.1H901.9V637.9H908.9H915.9H941.6H955.6H981.3H995.3H1021H1035H1060.7H1067.7H1074.7V139H1060.7Z" fill="#875CFF"/>
<path d="M709.9 349.9H613.9V637.9H709.9V349.9Z" fill="#875CFF"/>
<path d="M268.3 349.9H172.3V637.9H268.3V349.9Z" fill="#875CFF"/>
<path d="M498.7 215.5H364.3V637.9H498.7V215.5Z" fill="#875CFF"/>
<path d="M345.1 388.3H268.3V637.9H345.1V388.3Z" fill="#875CFF"/>
<path d="M364.3 599.5H345.1V637.9H364.3V599.5Z" fill="#875CFF"/>
<path d="M76.3 426.7H-0.5V637.9H76.3V426.7Z" fill="#875CFF"/>
<path d="M172.3 561.1H76.2998V637.9H172.3V561.1Z" fill="#875CFF"/>
<path d="M901.9 561.1H844.3V637.9H901.9V561.1Z" fill="#875CFF"/>
<path d="M786.7 503.5H709.9V637.9H786.7V503.5Z" fill="#875CFF"/>
<path d="M844.3 349.9H786.7V637.9H844.3V349.9Z" fill="#875CFF"/>
<path d="M1209.1 445.9H1074.7V637.9H1209.1V445.9Z" fill="#875CFF"/>
<path d="M1228.3 599.5H1209.1V637.9H1228.3V599.5Z" fill="#875CFF"/>
<path d="M1420.3 541.9H1362.7V637.9H1420.3V541.9Z" fill="#875CFF"/>
<path d="M1420.3 637.9H1669.9V349.9L1420.3 349.9V637.9Z" fill="#875CFF"/>
<path d="M1407.6 349.903L1682.6 349.903V340.703L1407.6 340.703V349.903Z" fill="#875CFF"/>
<path d="M1497.1 340.703H1593.1V311.503H1497.1V340.703Z" fill="#875CFF"/>
<path d="M1468.34 340.736H1481.84V310.236H1468.34V340.736Z" fill="#875CFF"/>
<path d="M1439.82 340.736H1454.72V310.236H1439.82V340.736Z" fill="#875CFF"/>
<path d="M1765.9 637.9H1861.9V273.1H1765.9V637.9Z" fill="#875CFF"/>
<path d="M1746.7 280.913H1881.1V270.713H1746.7V280.913Z" fill="#875CFF"/>
<path d="M1756.4 274.017H1871.3V257.717H1756.4V274.017Z" fill="#875CFF"/>
<path d="M1804.3 290.837H1861.9V234.737H1804.3V290.837Z" fill="#875CFF"/>
<path d="M1830.9 246.8H1861.9V218.9H1839.6L1830.9 246.8Z" fill="#875CFF"/>
<path d="M1850.39 263.922H1853.39V201.822H1850.39V263.922Z" fill="#875CFF"/>
<path d="M1849.1 198.5C1849.1 200.3 1850.3 201.7 1851.8 201.7C1853.3 201.7 1854.5 200.3 1854.5 198.5C1854.5 196.7 1853.3 195.3 1851.8 195.3C1850.3 195.3 1849.1 196.8 1849.1 198.5Z" fill="#875CFF"/>
<path d="M1919.5 465.1H1861.9V637.9H1919.5V465.1Z" fill="#875CFF"/>
<path d="M238 336.1H202.6V366.5H238V336.1Z" fill="#875CFF"/>
<path d="M419.1 203.7H377.1V215.5H419.1V203.7Z" fill="#875CFF"/>
<path d="M434.2 199.6H361.9V203.7H434.2V199.6Z" fill="#875CFF"/>
<path d="M650 278.3H648V331.4H650V278.3Z" fill="#875CFF"/>
<path d="M660.8 321H658.1V331.3H660.8V321Z" fill="#875CFF"/>
<path d="M680.5 334.7H643.6V369.1H680.5V334.7Z" fill="#875CFF"/>
<path d="M686.3 331.4H637.4V334.7H686.3V331.4Z" fill="#875CFF"/>
<path d="M354.4 380.9H268.3V388.3H354.4V380.9Z" fill="#875CFF"/>
</g>
<defs>
<clipPath id="clip0">
<rect width="1920" height="638" fill="white"/>
</clipPath>
</defs>
</svg>