<svg width="18" height="38" viewBox="0 0 18 38" fill="none" xmlns="http://www.w3.org/2000/svg">
<path d="M8.84053 7.02092C10.7553 7.02092 12.351 5.42526 12.351 3.51046C12.351 1.59567 10.7553 0 8.84053 0C6.92574 0 5.33008 1.59567 5.33008 3.51046C5.48964 5.42526 6.92574 7.02092 8.84053 7.02092Z" fill="#7638FF"/>
<path d="M17.138 19.6266L15.7019 9.41437C15.7019 9.09524 15.3828 8.77611 15.0636 8.61654C15.0636 8.61654 15.0636 8.61654 14.9041 8.61654C14.7445 8.45697 14.5849 8.45697 14.2658 8.45697H12.5106H5.48965H3.57486C3.25573 8.45697 2.9366 8.61654 2.77703 8.7761C2.4579 8.93567 2.29833 9.2548 2.29833 9.57394L0.862225 19.7862C0.702659 20.4244 1.18136 21.0627 1.81962 21.2223C2.45789 21.3818 3.09615 20.9032 3.25572 20.2649L4.53226 11.4887H5.17053L2.93659 26.1688H5.17053V36.3811C5.17053 37.1789 5.80879 37.9768 6.76619 37.9768C7.56402 37.9768 8.36185 37.3385 8.36185 36.3811V26.1688H9.63838V36.3811C9.63838 37.1789 10.2766 37.9768 11.234 37.9768C12.0319 37.9768 12.8297 37.3385 12.8297 36.3811V26.1688H15.2232L12.9893 11.4887H13.468L14.7445 20.2649C14.9041 20.9032 15.3828 21.3818 16.1806 21.2223C16.8189 20.9031 17.2976 20.2649 17.138 19.6266Z" fill="#7638FF"/>
</svg>