<svg width="1440" height="641" viewBox="0 0 1440 641" fill="none" xmlns="http://www.w3.org/2000/svg">
<path d="M148.646 984.377C150.732 971.289 152.629 958.201 154.716 944.923C158.509 919.695 162.493 894.657 166.286 869.429C170.839 839.46 175.581 809.3 180.133 779.33C185.065 747.464 189.996 715.408 194.928 683.541C199.67 652.623 204.412 621.894 209.154 590.976C213.327 564.231 217.5 537.296 221.484 510.551C224.519 490.824 227.554 471.097 230.588 451.18C232.865 436.006 237.038 420.452 234.192 404.898C231.537 389.534 219.208 379.101 213.707 364.875C209.534 353.684 208.585 341.734 207.258 329.973C205.93 318.023 203.274 307.401 198.722 296.4C190.376 276.293 181.081 254.67 165.338 239.116C153.767 227.735 141.058 215.975 133.092 201.559C130.816 197.575 128.16 192.264 129.488 187.522C131.954 178.607 142.955 178.228 149.594 182.211C158.699 187.712 165.338 197.575 171.597 205.732C186.203 224.51 208.965 259.601 219.966 251.445C225.088 247.651 221.484 237.029 219.966 232.287C217.121 222.993 213.138 213.698 208.585 205.163C197.204 184.867 185.444 164.381 175.96 143.137C171.977 134.032 157.751 103.493 172.546 97.2335C187.531 90.7843 201.377 115.443 207.068 125.306C211.62 133.083 215.793 141.05 219.208 149.396C224.139 161.536 230.399 173.296 235.71 185.436C240.831 197.196 245.384 209.146 249.557 221.096C250.126 222.993 251.074 225.079 252.781 226.028C259.799 229.632 255.437 206.68 254.868 204.214C251.643 188.091 245.763 172.537 241.969 156.414C237.227 135.739 233.054 114.684 230.399 93.8192C229.45 85.8526 228.502 76.7478 231.347 68.9709C234.761 59.6764 247.47 57.0209 255.057 63.0907C260.179 67.2637 261.507 74.0923 262.265 80.1621C263.214 87.7494 263.783 95.147 265.3 102.545C268.715 119.616 274.405 136.687 279.337 153.759C281.803 162.484 284.079 171.399 285.786 180.314C287.303 189.04 287.303 198.334 289.959 207.059C290.528 208.767 291.097 210.474 292.615 211.422C294.322 212.75 296.977 212.56 298.684 211.422C306.272 206.87 301.909 196.437 301.15 189.609C299.443 176.521 300.012 163.622 299.822 150.534C299.633 133.273 298.874 116.012 298.495 98.751C298.305 88.1288 300.581 73.5232 313.48 72.3851C325.619 71.2471 330.551 83.9558 332.258 93.8192C334.724 107.666 332.637 122.272 333.776 136.308C334.914 151.483 335.293 166.657 336.241 181.642C337.19 196.058 342.311 210.284 343.639 224.7C345.156 240.443 343.07 255.997 353.882 269.086C357.486 273.448 362.418 277.052 367.918 277.811C383.662 279.708 397.888 264.533 405.855 252.963C414.011 241.013 423.685 230.011 435.825 221.855C442.843 217.302 450.809 212.75 459.345 211.612C467.122 210.663 477.175 213.698 479.641 222.044C482.676 232.477 470.347 242.909 463.518 248.79C435.255 273.069 415.149 306.263 415.149 306.263C415.149 306.263 384.61 371.514 370.384 389.913C362.607 399.966 350.657 406.795 345.346 418.555C337.379 436.575 338.518 460.854 336.241 480.391C334.724 493.1 333.206 505.998 331.499 518.707C327.516 550.574 323.722 582.44 319.739 614.307C310.824 686.955 301.909 759.603 292.994 832.062C286.734 882.897 280.475 933.542 274.215 984.377H148.646Z" fill="#A483FF" fill-opacity="0.15"/>
<path d="M1230.02 984.377C1229.83 982.48 1229.83 980.583 1229.64 978.687C1227.75 951.562 1226.04 924.627 1224.14 897.503C1222.81 877.586 1221.49 857.669 1220.16 837.563C1219.21 822.199 1219.78 806.076 1213.71 791.66C1207.64 777.244 1193.41 769.847 1184.88 756.948C1178.24 746.895 1174.83 735.514 1170.84 724.323C1166.86 712.942 1162.12 703.268 1155.1 693.405C1142.58 675.575 1128.73 656.606 1109.95 644.846C1096.3 636.31 1081.12 627.395 1070.31 615.256C1067.28 611.841 1063.48 607.099 1063.86 602.357C1064.43 593.063 1075.05 590.218 1082.45 592.873C1092.5 596.287 1101.04 604.444 1109.2 611.083C1127.59 626.257 1157.56 655.468 1166.48 645.036C1170.65 640.104 1164.77 630.62 1162.31 626.257C1157.56 617.722 1151.68 609.565 1145.23 602.168C1129.87 584.907 1113.75 567.456 1099.9 548.677C1094.02 540.711 1073.54 513.965 1086.43 504.671C1099.71 494.997 1118.49 516.242 1126.27 524.588C1132.34 531.227 1138.22 538.055 1143.34 545.453C1150.74 556.265 1159.46 566.318 1167.24 576.94C1174.83 587.183 1181.84 597.995 1188.48 608.807C1189.43 610.514 1190.76 612.41 1192.66 612.79C1200.43 614.687 1190.95 593.442 1189.81 590.976C1182.98 575.802 1173.88 562.145 1166.86 547.16C1157.75 528.002 1149.03 508.275 1142.01 488.548C1139.35 480.961 1136.32 472.235 1137.46 464.079C1138.79 454.405 1150.55 448.904 1159.27 453.267C1165.15 456.112 1168 462.562 1170.08 468.442C1172.55 475.65 1174.83 482.668 1177.86 489.686C1184.88 505.619 1194.17 520.984 1202.71 536.538C1207.07 544.504 1211.24 552.661 1214.66 561.007C1218.07 569.353 1220.16 578.268 1224.71 586.045C1225.66 587.562 1226.61 589.08 1228.32 589.838C1230.21 590.787 1232.68 590.028 1234.39 588.51C1240.83 582.441 1234.39 573.336 1231.92 566.887C1227.37 554.557 1225.09 541.849 1222.06 529.14C1218.07 512.448 1213.52 495.566 1209.54 478.874C1207.07 468.631 1206.12 453.836 1218.45 449.853C1230.02 446.059 1237.61 457.44 1241.4 466.735C1246.71 479.633 1248.04 494.428 1252.03 507.896C1256.39 522.311 1260.18 537.107 1264.36 551.522C1268.53 565.369 1276.49 578.078 1281.05 591.925C1285.98 606.91 1287.31 622.464 1300.77 633.086C1305.14 636.5 1310.83 638.966 1316.33 638.397C1332.07 636.879 1342.69 618.86 1348.01 605.772C1353.32 592.304 1360.33 579.406 1370.39 568.973C1376.27 562.903 1383.1 556.834 1391.06 553.799C1398.27 551.143 1408.89 551.902 1413.07 559.489C1418.38 568.973 1408.7 581.872 1403.2 589.08C1380.82 618.86 1368.49 655.848 1368.49 655.848C1368.49 655.848 1352.94 726.22 1343.07 747.274C1337.57 758.845 1327.52 767.95 1324.86 780.659C1320.88 800.006 1327.52 823.337 1329.42 842.874C1330.74 855.583 1331.88 868.481 1333.21 881.19C1336.43 913.057 1339.47 945.113 1342.69 976.98C1342.88 979.445 1343.26 981.911 1343.45 984.377H1230.02Z" fill="#A483FF" fill-opacity="0.15"/>
<path d="M417.994 984.377C419.701 973.186 421.408 961.805 423.115 950.613C428.047 918.747 432.979 886.69 437.911 854.824C442.653 823.906 447.395 793.177 452.137 762.259C456.31 735.514 460.483 708.579 464.466 681.834C467.501 662.107 470.536 642.38 473.571 622.463C475.847 607.289 480.02 591.735 477.175 576.181C474.519 560.817 462.19 550.384 456.689 536.158C452.516 524.967 451.568 513.017 450.24 501.256C448.912 489.306 446.257 478.684 441.704 467.683C433.358 447.576 424.064 425.953 408.32 410.399C396.75 399.018 384.041 387.257 376.074 372.842C373.798 368.858 371.143 363.547 372.47 358.805C374.936 349.89 385.938 349.511 392.577 353.494C401.681 358.995 408.32 368.858 414.58 377.015C429.185 395.793 451.947 430.884 462.949 422.728C468.07 418.934 464.466 408.312 462.949 403.57C460.103 394.276 456.12 384.981 451.568 376.446C440.187 356.15 428.427 335.664 418.942 314.42C414.959 305.315 400.733 274.776 415.528 268.516C430.513 262.067 444.36 286.726 450.05 296.589C454.603 304.366 458.776 312.333 462.19 320.679C467.122 332.819 473.381 344.579 478.692 356.719C483.814 368.479 488.366 380.429 492.539 392.379C493.108 394.276 494.057 396.362 495.764 397.311C502.782 400.915 498.419 377.963 497.85 375.497C494.626 359.374 488.745 343.82 484.952 327.697C480.21 307.022 476.037 285.967 473.381 265.102C472.433 257.136 471.484 248.031 474.33 240.254C477.744 230.959 490.453 228.304 498.04 234.374C503.161 238.547 504.489 245.375 505.248 251.445C506.196 259.032 506.765 266.43 508.283 273.828C511.697 290.899 517.387 307.97 522.319 325.042C524.785 333.767 527.061 342.682 528.768 351.597C530.286 360.323 530.286 369.617 532.941 378.342C533.51 380.05 534.079 381.757 535.597 382.705C537.304 384.033 539.96 383.843 541.667 382.705C549.254 378.153 544.891 367.72 544.133 360.892C542.425 347.804 542.995 334.905 542.805 321.817C542.615 304.556 541.856 287.295 541.477 270.034C541.287 259.412 543.564 244.806 556.462 243.668C568.602 242.53 573.533 255.239 575.24 265.102C577.706 278.949 575.62 293.555 576.758 307.591C577.896 322.766 578.275 337.94 579.224 352.925C580.172 367.341 585.294 381.567 586.621 395.983C588.139 411.726 586.052 427.28 596.864 440.368C600.468 444.731 605.4 448.335 610.901 449.094C626.644 450.991 640.871 435.816 648.837 424.246C656.994 412.296 666.667 401.294 678.807 393.138C685.825 388.585 693.792 384.033 702.328 382.895C710.104 381.946 720.158 384.981 722.624 393.327C725.658 403.76 713.329 414.192 706.501 420.073C678.238 444.352 658.132 477.546 658.132 477.546C658.132 477.546 627.593 542.797 613.367 561.196C605.59 571.249 593.64 578.078 588.329 589.838C580.362 607.858 581.5 632.137 579.224 651.674C577.706 664.383 576.189 677.281 574.482 689.99C570.498 721.857 566.705 753.723 562.721 785.59C554.565 851.979 546.409 918.178 538.252 984.567L417.994 984.377Z" fill="#A483FF" fill-opacity="0.15"/>
<path d="M976.419 984.377C975.471 977.927 974.522 971.478 973.384 965.029C970.729 947.768 968.073 930.507 965.418 913.246C961.624 888.018 957.641 862.98 953.847 837.752C949.295 807.783 944.553 777.623 940 747.653C935.068 715.787 930.137 683.731 925.205 651.864C920.463 620.946 915.721 590.217 910.979 559.299C906.806 532.554 902.633 505.619 898.65 478.874C895.615 459.147 892.58 439.42 889.545 419.503C887.269 404.329 883.096 388.775 885.941 373.221C888.596 357.857 900.926 347.424 906.426 333.198C910.599 322.007 911.548 310.057 912.876 298.296C914.203 286.346 916.859 275.724 921.411 264.723C929.757 244.616 939.052 222.993 954.795 207.439C966.366 196.058 979.075 184.298 987.041 169.882C989.318 165.898 991.973 160.587 990.645 155.845C988.18 146.93 977.178 146.551 970.539 150.534C961.434 156.035 954.795 165.898 948.536 174.055C933.93 192.833 911.169 227.924 900.167 219.768C895.046 215.974 898.65 205.352 900.167 200.61C903.012 191.316 906.996 182.021 911.548 173.486C922.929 153.19 934.689 132.704 944.173 111.46C948.157 102.355 962.383 71.816 947.587 65.5565C932.603 59.1073 918.756 83.766 913.065 93.6295C908.513 101.406 904.34 109.373 900.926 117.719C895.994 129.859 889.734 141.619 884.423 153.759C879.302 165.519 874.75 177.469 870.577 189.419C870.007 191.316 869.059 193.402 867.352 194.351C860.334 197.955 864.696 175.003 865.265 172.537C868.49 156.414 874.37 140.86 878.164 124.737C882.906 104.062 887.079 83.0073 889.734 62.1422C890.683 54.1756 891.631 45.0708 888.786 37.2939C885.372 27.9994 872.663 25.3439 865.076 31.4137C859.954 35.5867 858.627 42.4153 857.868 48.4851C856.919 56.0724 856.35 63.47 854.833 70.8676C851.419 87.939 845.728 105.01 840.796 122.082C838.331 130.807 836.054 139.722 834.347 148.637C832.83 157.363 832.83 166.657 830.174 175.382C829.605 177.09 829.036 178.797 827.519 179.745C825.812 181.073 823.156 180.883 821.449 179.745C813.862 175.193 818.224 164.76 818.983 157.932C820.69 144.844 820.121 131.945 820.311 118.857C820.5 101.596 821.259 84.335 821.639 67.074C821.828 56.4518 819.552 41.8462 806.654 40.7082C794.514 39.5701 789.582 52.2788 787.875 62.1422C785.409 75.989 787.496 90.5946 786.358 104.631C785.22 119.806 784.84 134.98 783.892 149.965C782.943 164.381 777.822 178.607 776.494 193.023C774.977 208.767 777.063 224.32 766.251 237.409C762.647 241.771 757.716 245.375 752.215 246.134C736.471 248.031 722.245 232.856 714.278 221.286C706.122 209.336 696.448 198.334 684.309 190.178C677.29 185.625 669.324 181.073 660.788 179.935C653.011 178.986 642.958 182.021 640.492 190.367C637.457 200.8 649.787 211.232 656.615 217.113C684.878 241.392 704.984 274.586 704.984 274.586C704.984 274.586 735.523 339.837 749.749 358.236C757.526 368.289 769.476 375.118 774.787 386.878C782.754 404.898 781.616 429.177 783.892 448.714C785.409 461.423 786.927 474.322 788.634 487.03C792.617 518.897 796.411 550.763 800.394 582.63C809.309 655.278 818.224 727.927 827.139 800.385C833.778 853.875 840.227 907.176 846.866 960.667C847.815 968.633 848.763 976.41 849.712 984.377H976.419Z" fill="#A483FF" fill-opacity="0.15"/>
<path d="M736.091 984.377C735.712 963.512 735.332 942.647 734.763 921.592C734.384 901.676 734.004 881.569 733.625 861.653C733.246 846.288 731.349 830.355 736.091 815.37C740.833 800.575 754.49 791.85 761.698 778.382C767.389 767.95 769.854 756 772.7 744.619C775.735 733.048 779.718 722.805 785.598 712.563C796.6 693.784 808.55 673.488 826.38 660.21C839.278 650.537 853.504 640.483 863.368 627.395C866.023 623.791 869.438 618.86 868.679 613.928C867.351 604.633 856.539 602.926 849.331 606.151C839.657 610.514 831.691 619.239 824.293 626.447C807.411 643.139 780.097 674.816 770.234 665.332C765.681 660.779 770.613 650.726 772.7 646.174C776.683 637.259 781.804 628.533 787.685 620.756C801.531 602.168 816.137 583.389 828.276 563.662C833.398 555.126 851.607 526.864 837.761 518.518C823.724 510.172 806.842 532.744 799.824 541.849C794.323 548.867 789.012 556.264 784.65 564.041C778.2 575.422 770.423 586.234 763.595 597.426C756.956 608.427 750.886 619.618 745.196 630.999C744.247 632.706 743.299 634.793 741.402 635.362C733.815 638.018 741.402 615.825 742.35 613.359C747.851 597.805 755.628 583.199 761.508 567.645C768.906 547.918 775.735 527.433 781.235 506.947C783.322 499.17 785.408 490.255 783.512 482.288C781.425 472.615 769.096 468.252 760.939 473.373C755.439 476.788 753.162 483.427 751.455 489.496C749.558 496.894 748.041 504.102 745.575 511.31C739.885 527.812 731.918 543.935 724.9 560.248C721.296 568.594 717.882 577.13 715.036 585.665C712.381 594.201 711.053 603.306 707.259 611.462C706.501 612.979 705.552 614.687 704.035 615.445C702.138 616.583 699.672 616.014 697.965 614.687C690.947 609.186 696.637 599.512 698.534 592.873C701.948 580.164 703.086 567.266 704.983 554.368C707.449 537.296 710.674 520.225 713.139 503.343C714.657 492.911 714.467 478.115 701.759 475.27C689.809 472.615 683.359 484.565 680.324 494.049C676.151 507.516 676.151 522.122 673.306 535.969C670.082 550.764 667.805 565.749 664.771 580.544C661.925 594.77 655.097 608.048 651.682 622.084C648.078 637.448 648.078 653.192 635.559 664.763C631.386 668.556 626.075 671.402 620.385 671.402C604.641 671.212 592.312 654.33 586.052 641.621C579.603 628.723 571.447 616.394 560.445 606.91C553.996 601.409 546.788 595.908 538.442 593.632C531.045 591.545 520.422 593.442 517.008 601.219C512.645 611.083 523.457 623.033 529.337 629.861C554.186 657.555 569.74 693.405 569.74 693.405C569.74 693.405 591.364 762.259 603.124 782.176C609.573 793.177 620.385 801.523 623.989 813.853C629.49 832.631 625.127 856.531 624.937 876.258C624.748 889.157 624.558 902.055 624.558 914.764C624.368 937.905 623.989 961.046 623.799 983.998L736.091 984.377Z" fill="#A483FF" fill-opacity="0.15"/>
<path d="M1121.91 984.377C1121.34 959.718 1120.96 935.059 1120.39 910.401C1119.82 879.103 1119.06 847.995 1118.49 816.698C1117.92 789.573 1117.35 762.448 1116.78 735.324C1116.4 715.407 1116.03 695.301 1115.65 675.384C1115.27 660.02 1113.37 644.087 1118.11 629.102C1122.85 614.307 1136.51 605.581 1143.72 592.114C1149.41 581.681 1151.88 569.731 1154.72 558.351C1157.76 546.78 1161.74 536.537 1167.62 526.294C1178.62 507.516 1190.57 487.22 1208.4 473.942C1221.3 464.268 1235.52 454.215 1245.39 441.127C1248.04 437.523 1251.46 432.591 1250.7 427.66C1249.37 418.365 1238.56 416.658 1231.35 419.883C1221.68 424.245 1213.71 432.971 1206.31 440.179C1189.43 456.871 1162.12 488.548 1152.25 479.063C1147.7 474.511 1152.63 464.458 1154.72 459.906C1158.7 450.99 1163.82 442.265 1169.71 434.488C1183.55 415.899 1198.16 397.121 1210.3 377.394C1215.42 368.858 1233.63 340.595 1219.78 332.249C1205.74 323.903 1188.86 346.476 1181.84 355.58C1176.34 362.599 1171.03 369.996 1166.67 377.773C1160.22 389.154 1152.44 399.966 1145.62 411.157C1138.98 422.159 1132.91 433.35 1127.22 444.731C1126.27 446.438 1125.32 448.525 1123.42 449.094C1115.84 451.749 1123.42 429.556 1124.37 427.09C1129.87 411.537 1137.65 396.931 1143.53 381.377C1150.93 361.65 1157.76 341.164 1163.26 320.679C1165.34 312.902 1167.43 303.987 1165.53 296.02C1163.45 286.346 1151.12 281.984 1142.96 287.105C1137.46 290.519 1135.18 297.158 1133.48 303.228C1131.58 310.626 1130.06 317.834 1127.6 325.042C1121.91 341.544 1113.94 357.667 1106.92 373.979C1103.32 382.326 1099.9 390.861 1097.06 399.397C1094.4 407.933 1093.07 417.037 1089.28 425.194C1088.52 426.711 1087.57 428.418 1086.06 429.177C1084.16 430.315 1081.69 429.746 1079.99 428.418C1072.97 422.917 1078.66 413.244 1080.55 406.605C1083.97 393.896 1085.11 380.998 1087 368.099C1089.47 351.028 1092.69 333.957 1095.16 317.075C1096.68 306.642 1096.49 291.847 1083.78 289.002C1071.83 286.346 1065.38 298.296 1062.35 307.78C1058.17 321.248 1058.17 335.853 1055.33 349.7C1052.1 364.495 1049.83 379.48 1046.79 394.275C1043.95 408.502 1037.12 421.779 1033.7 435.816C1030.1 451.18 1030.1 466.924 1017.58 478.494C1013.41 482.288 1008.1 485.133 1002.41 485.133C986.662 484.944 974.332 468.062 968.073 455.353C961.624 442.455 953.467 430.125 942.466 420.641C936.017 415.141 928.809 409.64 920.463 407.364C913.065 405.277 902.443 407.174 899.029 414.951C894.666 424.814 905.478 436.764 911.358 443.593C936.206 471.286 951.76 507.136 951.76 507.136C951.76 507.136 973.384 575.991 985.144 595.908C991.594 606.909 1002.41 615.255 1006.01 627.585C1011.51 646.363 1007.15 670.263 1006.96 689.99C1006.77 702.888 1006.58 715.787 1006.58 728.495C1006.2 760.552 1005.82 792.608 1005.63 824.664C1005.06 877.775 1004.49 930.886 1003.92 983.997L1121.91 984.377Z" fill="#A483FF" fill-opacity="0.15"/>
<path d="M-7.08303 984.377C-0.633835 964.65 5.62567 945.113 12.0749 925.386C21.7486 895.606 31.4224 866.015 41.0962 836.235C49.4422 810.438 57.9779 784.642 66.324 758.845C72.5835 739.877 78.6533 720.719 84.9128 701.751C89.6549 687.145 93.0691 671.401 102.553 658.882C111.848 646.363 127.591 642.759 138.972 632.327C147.887 624.36 153.957 613.928 160.596 604.064C167.235 594.011 174.253 585.665 183.358 577.888C200.05 563.662 217.88 548.677 239.124 541.848C254.489 536.917 271.37 532.175 284.838 522.88C288.631 520.225 293.373 516.81 294.322 511.879C296.029 502.774 286.355 497.463 278.768 498.032C268.146 498.98 257.903 504.671 248.419 509.033C226.985 519.087 190.755 540.331 184.686 528.002C181.84 522.122 189.807 514.345 193.221 510.741C200.05 503.722 207.637 497.083 215.793 491.583C234.951 478.495 254.868 465.596 272.888 450.991C280.475 444.731 307.031 423.866 296.788 411.537C286.355 399.018 262.835 414.761 253.351 421.021C245.953 425.953 238.366 431.074 231.727 437.144C221.863 445.869 210.862 453.457 200.809 461.803C190.945 469.959 181.461 478.495 172.356 487.41C170.839 488.738 169.321 490.255 167.235 490.255C159.268 490.255 173.684 471.856 175.201 469.769C185.444 456.871 197.584 445.68 208.206 432.971C221.674 416.658 234.951 399.777 246.712 382.136C251.264 375.497 256.196 367.72 257.144 359.564C258.282 349.89 248.229 341.544 238.745 343.631C232.296 344.958 227.933 350.459 224.519 355.77C220.346 362.03 216.363 368.479 211.62 374.549C200.809 388.206 188.1 400.915 176.15 414.003C169.89 420.642 164.01 427.47 158.509 434.868C153.198 442.076 149.025 450.232 142.766 456.681C141.628 458.009 140.11 459.147 138.403 459.526C136.317 459.906 134.04 458.578 132.902 456.681C128.16 449.284 136.696 441.886 140.49 436.196C147.887 425.384 153.198 413.623 159.268 402.053C167.235 386.689 175.771 371.704 183.737 356.529C188.669 347.235 193.221 333.198 182.22 326.18C171.787 319.731 161.734 328.835 155.854 336.802C147.508 347.993 142.766 362.03 135.368 374.169C127.591 387.068 120.383 400.535 112.606 413.434C105.209 425.763 94.3969 436.196 86.4303 448.525C77.8946 461.803 72.7731 476.598 57.2192 483.616C52.0978 485.892 46.028 486.841 40.7169 484.944C25.9217 479.633 19.8518 459.526 18.1447 445.49C16.2479 431.074 12.6439 416.848 5.43599 404.329C1.26299 396.931 -3.85844 389.344 -10.8767 384.602C-17.3259 380.239 -27.7584 378.343 -33.6385 384.792C-41.0361 392.569 -34.7766 407.554 -31.3624 415.9C-16.9465 450.232 -14.1013 489.117 -14.1013 489.117C-14.1013 489.117 -16.1878 561.196 -11.8251 583.958C-9.35921 596.477 -1.77193 607.858 -2.53066 620.756C-3.47907 640.483 -15.6187 661.538 -22.2576 680.127C-26.6203 692.266 -30.983 704.406 -35.3457 716.356C-46.1576 746.515 -57.1591 776.675 -67.971 806.834C-71.1956 815.939 -74.6099 825.234 -77.8345 834.338V983.998L-7.08303 984.377Z" fill="#A483FF" fill-opacity="0.15"/>
<path d="M1439.43 397.311C1438.29 395.603 1436.97 394.086 1435.83 392.379C1424.07 376.066 1412.5 359.943 1400.74 343.63C1391.82 331.111 1381.01 319.161 1376.46 304.177C1371.9 289.381 1378.16 274.397 1376.46 259.032C1375.13 247.082 1370.58 236.081 1366.4 224.889C1362.23 213.698 1359.76 203.076 1358.82 191.126C1357.11 169.313 1355.59 145.982 1362.61 124.927C1367.73 109.563 1373.8 93.2501 1374.37 76.7477C1374.56 72.1954 1374.37 66.3152 1371.15 62.5216C1364.89 55.693 1354.83 60.4351 1350.85 67.0739C1345.35 76.1787 1343.83 87.7493 1341.93 97.9921C1337.38 121.323 1333.02 163.053 1319.55 160.777C1313.1 159.639 1311.59 148.637 1310.83 143.706C1309.12 134.032 1308.36 123.979 1308.74 114.305C1309.5 91.1636 1310.83 67.4533 1309.69 44.3121C1309.12 34.4486 1307.98 0.685199 1291.86 1.82329C1275.55 2.96138 1274.41 31.0343 1273.84 42.6049C1273.46 51.52 1273.27 60.6248 1274.03 69.5398C1275.17 82.6279 1274.79 95.9056 1275.74 109.183C1276.49 121.892 1277.82 134.601 1279.72 147.309C1279.91 149.206 1280.29 151.482 1279.15 153.19C1274.41 159.639 1268.15 137.256 1267.39 134.601C1263.03 118.667 1261.13 102.165 1257.15 86.2318C1252.03 65.7462 1246.14 45.0708 1238.94 25.1542C1236.28 17.5669 1232.87 9.03121 1226.8 3.53043C1219.59 -3.10844 1207.07 0.116154 1203.09 9.03121C1200.43 15.101 1202.33 21.7399 1204.41 27.6201C1207.07 34.828 1209.92 41.6565 1212 49.0541C1216.74 65.9359 1219.4 83.766 1222.81 101.027C1224.52 109.942 1226.61 118.857 1229.26 127.583C1231.92 136.118 1236.09 144.464 1237.61 153.19C1237.99 154.897 1238.18 156.794 1237.23 158.311C1236.28 160.208 1234.01 161.346 1231.73 161.156C1222.81 160.587 1222.06 149.396 1219.78 142.947C1215.42 130.617 1208.97 119.237 1203.28 107.666C1195.69 92.112 1188.48 76.3684 1180.89 61.0041C1176.34 51.52 1167.62 39.57 1155.48 44.3121C1144.1 48.8645 1145.61 62.3319 1148.46 72.0057C1152.63 85.4731 1160.98 97.4231 1166.48 110.511C1172.36 124.548 1178.81 138.205 1184.88 152.052C1190.57 165.329 1192.46 180.314 1197.78 193.782C1203.47 208.577 1212.57 221.286 1208.78 237.978C1207.64 243.478 1204.79 248.979 1200.05 252.014C1186.96 260.929 1167.24 253.911 1154.91 247.082C1142.2 240.064 1128.54 234.563 1114.13 233.046C1105.78 232.097 1096.68 231.718 1088.52 234.563C1081.31 237.219 1073.53 244.616 1075.24 252.962C1077.33 263.585 1092.88 267.378 1101.8 269.465C1138.03 278.19 1171.03 298.676 1171.03 298.676C1171.03 298.676 1227.94 342.872 1248.99 352.735C1260.56 358.236 1274.22 358.805 1284.27 366.961C1299.64 379.291 1309.5 401.484 1320.5 417.796C1327.71 428.418 1334.92 439.041 1342.12 449.852C1360.14 476.408 1377.97 502.963 1395.99 529.519C1410.6 551.332 1425.39 572.956 1440 594.77L1439.43 397.311Z" fill="#A483FF" fill-opacity="0.15"/>
</svg>