<svg width="1920" height="1080" viewBox="0 0 1920 1080" fill="none" xmlns="http://www.w3.org/2000/svg">
<g clip-path="url(#clip0)">
<rect width="1920" height="1080" fill="white"/>
<path d="M519.512 1240C521.278 1228.93 522.883 1217.86 524.649 1206.63C527.859 1185.29 531.229 1164.11 534.44 1142.78C538.292 1117.43 542.305 1091.92 546.157 1066.57C550.33 1039.61 554.503 1012.5 558.676 985.547C562.689 959.396 566.702 933.405 570.715 907.254C574.246 884.632 577.777 861.85 581.148 839.229C583.716 822.543 586.284 805.858 588.852 789.012C590.778 776.177 594.31 763.021 591.902 749.865C589.655 736.87 579.222 728.046 574.567 716.013C571.036 706.547 570.233 696.44 569.11 686.493C567.986 676.385 565.739 667.401 561.887 658.095C554.824 641.089 546.959 622.799 533.637 609.643C523.846 600.017 513.092 590.07 506.351 577.877C504.424 574.508 502.177 570.015 503.301 566.005C505.387 558.464 514.697 558.143 520.315 561.512C528.019 566.165 533.637 574.508 538.934 581.406C551.293 597.29 570.554 626.971 579.864 620.072C584.197 616.863 581.148 607.879 579.864 603.868C577.456 596.006 574.085 588.145 570.233 580.925C560.603 563.758 550.651 546.431 542.626 528.462C539.255 520.761 527.217 494.931 539.736 489.637C552.417 484.182 564.134 505.039 568.949 513.381C572.801 519.959 576.332 526.697 579.222 533.757C583.395 544.025 588.692 553.972 593.186 564.24C597.52 574.187 601.372 584.294 604.903 594.402C605.385 596.006 606.187 597.771 607.632 598.573C613.571 601.622 609.879 582.209 609.397 580.123C606.669 566.486 601.693 553.33 598.483 539.693C594.47 522.205 590.939 504.397 588.692 486.749C587.889 480.01 587.087 472.309 589.494 465.731C592.383 457.87 603.137 455.624 609.558 460.758C613.892 464.288 615.015 470.063 615.657 475.197C616.46 481.615 616.941 487.872 618.225 494.129C621.115 508.568 625.93 523.007 630.103 537.447C632.19 544.827 634.116 552.367 635.56 559.908C636.844 567.288 636.844 575.149 639.092 582.53C639.573 583.973 640.055 585.417 641.339 586.22C642.783 587.343 645.03 587.182 646.475 586.22C652.895 582.369 649.204 573.545 648.562 567.769C647.117 556.699 647.598 545.789 647.438 534.719C647.277 520.12 646.635 505.52 646.314 490.92C646.154 481.936 648.08 469.582 658.995 468.619C669.267 467.657 673.44 478.406 674.885 486.749C676.972 498.461 675.206 510.814 676.169 522.687C677.132 535.522 677.453 548.356 678.256 561.031C679.058 573.224 683.392 585.257 684.516 597.45C685.8 610.766 684.034 623.922 693.183 634.992C696.233 638.682 700.406 641.731 705.061 642.373C718.383 643.977 730.421 631.142 737.163 621.355C744.064 611.248 752.25 601.942 762.523 595.044C768.462 591.193 775.203 587.343 782.426 586.38C789.007 585.578 797.514 588.145 799.601 595.204C802.169 604.028 791.736 612.852 785.957 617.826C762.041 638.362 745.027 666.438 745.027 666.438C745.027 666.438 719.186 721.628 707.147 737.191C700.566 745.694 690.454 751.47 685.96 761.417C679.219 776.658 680.182 797.194 678.256 813.719C676.972 824.468 675.688 835.378 674.243 846.127C670.872 873.081 667.662 900.034 664.291 926.988C656.747 988.435 649.204 1049.88 641.66 1111.17C636.363 1154.17 631.066 1197 625.769 1240H519.512Z" fill="#A483FF" fill-opacity="0.15"/>
<path d="M1435.71 1240C1435.55 1238.4 1435.55 1236.8 1435.39 1235.19C1433.78 1212.29 1432.34 1189.55 1430.73 1166.64C1429.61 1149.82 1428.48 1133 1427.36 1116.03C1426.56 1103.05 1427.04 1089.44 1421.9 1077.26C1416.76 1065.09 1404.71 1058.84 1397.49 1047.95C1391.87 1039.46 1388.98 1029.85 1385.6 1020.4C1382.23 1010.79 1378.22 1002.62 1372.27 994.295C1361.67 979.238 1349.95 963.221 1334.05 953.29C1322.49 946.083 1309.64 938.555 1300.48 928.303C1297.91 925.42 1294.7 921.416 1295.02 917.412C1295.5 909.563 1304.5 907.161 1310.76 909.403C1319.27 912.286 1326.5 919.174 1333.41 924.78C1348.99 937.593 1374.36 962.26 1381.91 953.451C1385.44 949.286 1380.46 941.277 1378.38 937.593C1374.36 930.386 1369.38 923.498 1363.92 917.252C1350.91 902.676 1337.26 887.94 1325.54 872.083C1320.56 865.355 1303.21 842.771 1314.13 834.923C1325.38 826.754 1341.28 844.693 1347.86 851.741C1353 857.347 1357.98 863.113 1362.32 869.36C1368.58 878.49 1375.97 886.979 1382.55 895.949C1388.98 904.598 1394.92 913.728 1400.54 922.858C1401.34 924.299 1402.47 925.901 1404.07 926.221C1410.66 927.823 1402.63 909.884 1401.66 907.801C1395.88 894.988 1388.17 883.455 1382.23 870.801C1374.52 854.624 1367.13 837.966 1361.19 821.308C1358.94 814.901 1356.37 807.533 1357.34 800.646C1358.46 792.477 1368.42 787.832 1375.81 791.516C1380.78 793.918 1383.19 799.364 1384.96 804.33C1387.05 810.416 1388.98 816.343 1391.55 822.269C1397.49 835.723 1405.36 848.698 1412.58 861.832C1416.28 868.559 1419.81 875.446 1422.7 882.494C1425.59 889.542 1427.36 897.07 1431.21 903.637C1432.02 904.918 1432.82 906.2 1434.27 906.84C1435.87 907.641 1437.96 907 1439.41 905.719C1444.87 900.594 1439.41 892.905 1437.32 887.459C1433.46 877.048 1431.54 866.317 1428.97 855.585C1425.59 841.49 1421.74 827.234 1418.37 813.139C1416.28 804.49 1415.48 791.996 1425.91 788.633C1435.71 785.429 1442.14 795.04 1445.35 802.888C1449.84 813.78 1450.97 826.273 1454.34 837.646C1458.04 849.819 1461.25 862.312 1464.78 874.485C1468.31 886.178 1475.06 896.91 1478.91 908.602C1483.09 921.256 1484.21 934.39 1495.62 943.36C1499.31 946.243 1504.13 948.325 1508.79 947.845C1522.12 946.563 1531.11 931.347 1535.61 920.295C1540.1 908.923 1546.05 898.031 1554.56 889.221C1559.54 884.096 1565.32 878.97 1572.06 876.407C1578.17 874.165 1587.16 874.806 1590.69 881.213C1595.19 889.221 1587 900.113 1582.34 906.2C1563.39 931.347 1552.95 962.58 1552.95 962.58C1552.95 962.58 1539.78 1022 1531.43 1039.78C1526.77 1049.55 1518.26 1057.24 1516.01 1067.97C1512.64 1084.31 1518.26 1104.01 1519.87 1120.51C1520.99 1131.24 1521.96 1142.13 1523.08 1152.87C1525.81 1179.77 1528.38 1206.84 1531.11 1233.75C1531.27 1235.84 1531.59 1237.92 1531.75 1240H1435.71Z" fill="#A483FF" fill-opacity="0.15"/>
<path d="M747.823 1241.84C749.268 1232.35 750.712 1222.7 752.157 1213.2C756.33 1186.18 760.503 1158.99 764.676 1131.97C768.689 1105.74 772.702 1079.68 776.715 1053.46C780.246 1030.78 783.777 1007.94 787.148 985.254C789.716 968.524 792.284 951.793 794.852 934.902C796.778 922.033 800.31 908.841 797.902 895.65C795.655 882.62 785.222 873.772 780.567 861.707C777.036 852.216 776.233 842.081 775.11 832.107C773.986 821.973 771.739 812.964 767.887 803.634C760.824 786.581 752.959 768.242 739.637 755.051C729.846 745.399 719.092 735.425 712.351 723.199C710.424 719.821 708.177 715.317 709.301 711.295C711.387 703.734 720.697 703.412 726.315 706.791C734.019 711.456 739.637 719.821 744.934 726.738C757.293 742.664 776.554 772.425 785.864 765.508C790.197 762.29 787.148 753.282 785.864 749.26C783.456 741.377 780.085 733.495 776.233 726.256C766.603 709.043 756.651 691.669 748.626 673.652C745.255 665.93 733.217 640.03 745.736 634.722C758.417 629.252 770.134 650.165 774.949 658.53C778.801 665.126 782.332 671.882 785.222 678.96C789.395 689.256 794.692 699.23 799.186 709.525C803.52 719.499 807.372 729.634 810.903 739.769C811.385 741.377 812.187 743.147 813.632 743.951C819.571 747.008 815.879 727.543 815.397 725.451C812.669 711.778 807.693 698.586 804.483 684.913C800.47 667.378 796.939 649.522 794.692 631.826C793.889 625.07 793.087 617.348 795.494 610.752C798.383 602.87 809.137 600.618 815.558 605.765C819.892 609.304 821.015 615.096 821.657 620.243C822.46 626.678 822.941 632.952 824.225 639.226C827.114 653.704 831.93 668.182 836.103 682.66C838.19 690.06 840.116 697.621 841.56 705.182C842.844 712.582 842.844 720.465 845.092 727.864C845.573 729.312 846.055 730.76 847.339 731.564C848.783 732.691 851.03 732.53 852.475 731.564C858.895 727.704 855.204 718.856 854.562 713.065C853.117 701.965 853.598 691.026 853.438 679.926C853.277 665.287 852.635 650.648 852.314 636.009C852.154 627 854.08 614.613 864.995 613.648C875.267 612.683 879.44 623.461 880.885 631.826C882.972 643.569 881.206 655.956 882.169 667.861C883.132 680.73 883.453 693.6 884.256 706.308C885.058 718.534 889.392 730.599 890.516 742.825C891.8 756.177 890.034 769.369 899.183 780.468C902.233 784.168 906.406 787.225 911.061 787.868C924.383 789.477 936.421 776.608 943.163 766.795C950.064 756.66 958.25 747.33 968.523 740.412C974.462 736.551 981.203 732.691 988.426 731.725C995.007 730.921 1003.51 733.495 1005.6 740.573C1008.17 749.421 997.736 758.269 991.957 763.256C968.041 783.847 951.027 811.999 951.027 811.999C951.027 811.999 925.185 867.337 913.147 882.942C906.566 891.468 896.454 897.259 891.96 907.233C885.219 922.515 886.182 943.106 884.256 959.676C882.972 970.454 881.688 981.393 880.243 992.171C876.872 1019.2 873.662 1046.22 870.291 1073.25C863.389 1129.55 856.488 1185.7 849.586 1242L747.823 1241.84Z" fill="#A483FF" fill-opacity="0.15"/>
<path d="M1221.62 1240C1220.81 1234.54 1220.01 1229.09 1219.04 1223.63C1216.79 1209.03 1214.53 1194.42 1212.28 1179.82C1209.06 1158.48 1205.68 1137.29 1202.45 1115.95C1198.59 1090.6 1194.56 1065.08 1190.7 1039.72C1186.51 1012.76 1182.32 985.642 1178.14 958.682C1174.11 932.524 1170.08 906.527 1166.06 880.369C1162.51 857.741 1158.97 834.954 1155.59 812.326C1153.01 795.637 1150.44 778.947 1147.86 762.097C1145.93 749.258 1142.38 736.099 1144.8 722.94C1147.05 709.941 1157.52 701.115 1162.19 689.079C1165.74 679.611 1166.54 669.501 1167.67 659.551C1168.8 649.441 1171.05 640.454 1174.92 631.147C1182 614.136 1189.89 595.841 1203.26 582.682C1213.08 573.054 1223.87 563.104 1230.64 550.908C1232.57 547.538 1234.83 543.044 1233.7 539.032C1231.6 531.49 1222.26 531.169 1216.63 534.539C1208.9 539.193 1203.26 547.538 1197.95 554.438C1185.54 570.325 1166.22 600.014 1156.88 593.113C1152.53 589.904 1155.59 580.917 1156.88 576.905C1159.29 569.042 1162.68 561.178 1166.54 553.957C1176.2 536.785 1186.19 519.454 1194.24 501.48C1197.62 493.777 1209.7 467.94 1197.14 462.645C1184.42 457.188 1172.66 478.051 1167.83 486.395C1163.96 492.975 1160.42 499.715 1157.52 506.776C1153.33 517.047 1148.02 526.996 1143.51 537.267C1139.16 547.217 1135.3 557.327 1131.75 567.437C1131.27 569.042 1130.47 570.807 1129.02 571.609C1123.06 574.658 1126.76 555.24 1127.24 553.154C1129.98 539.514 1134.97 526.354 1138.2 512.714C1142.22 495.222 1145.77 477.409 1148.02 459.756C1148.83 453.016 1149.63 445.313 1147.21 438.733C1144.32 430.87 1133.53 428.623 1127.08 433.759C1122.74 437.289 1121.61 443.066 1120.96 448.202C1120.16 454.621 1119.68 460.879 1118.39 467.138C1115.49 481.581 1110.66 496.024 1106.47 510.467C1104.38 517.849 1102.44 525.392 1100.99 532.934C1099.7 540.316 1099.7 548.179 1097.45 555.561C1096.97 557.006 1096.48 558.45 1095.2 559.252C1093.75 560.376 1091.49 560.215 1090.04 559.252C1083.6 555.401 1087.3 546.575 1087.95 540.797C1089.4 529.724 1088.91 518.812 1089.08 507.739C1089.24 493.135 1089.88 478.532 1090.2 463.928C1090.36 454.942 1088.43 442.585 1077.48 441.622C1067.17 440.659 1062.99 451.411 1061.54 459.756C1059.44 471.471 1061.21 483.828 1060.25 495.703C1059.28 508.541 1058.96 521.38 1058.15 534.057C1057.35 546.254 1053 558.29 1051.87 570.486C1050.58 583.806 1052.36 596.965 1043.18 608.038C1040.12 611.729 1035.93 614.778 1031.26 615.42C1017.89 617.024 1005.81 604.186 999.049 594.397C992.124 584.287 983.91 574.979 973.603 568.079C967.644 564.227 960.88 560.376 953.633 559.413C947.03 558.61 938.494 561.178 936.401 568.239C933.824 577.065 944.292 585.892 950.09 590.867C974.086 611.408 991.158 639.491 991.158 639.491C991.158 639.491 1017.09 694.696 1029.17 710.262C1035.77 718.768 1045.91 724.545 1050.42 734.494C1057.19 749.74 1056.22 770.281 1058.15 786.81C1059.44 797.562 1060.73 808.475 1062.18 819.227C1065.56 846.187 1068.78 873.147 1072.17 900.108C1079.73 961.571 1087.3 1023.03 1094.87 1084.34C1100.51 1129.59 1105.99 1174.69 1111.62 1219.94C1112.43 1226.68 1113.23 1233.26 1114.04 1240H1221.62Z" fill="#A483FF" fill-opacity="0.15"/>
<path d="M1017.54 1240C1017.22 1222.39 1016.89 1204.79 1016.41 1187.02C1016.09 1170.22 1015.77 1153.25 1015.45 1136.45C1015.13 1123.48 1013.52 1110.04 1017.54 1097.4C1021.56 1084.91 1033.13 1077.55 1039.24 1066.19C1044.06 1057.38 1046.15 1047.3 1048.56 1037.7C1051.14 1027.93 1054.51 1019.29 1059.5 1010.65C1068.82 994.804 1078.95 977.679 1094.06 966.475C1104.99 958.313 1117.05 949.83 1125.41 938.787C1127.66 935.746 1130.55 931.584 1129.91 927.423C1128.78 919.581 1119.62 918.14 1113.51 920.861C1105.31 924.542 1098.56 931.905 1092.29 937.986C1077.98 952.071 1054.83 978.799 1046.47 970.797C1042.62 966.955 1046.8 958.473 1048.56 954.632C1051.94 947.109 1056.28 939.747 1061.26 933.185C1073 917.5 1085.38 901.655 1095.67 885.01C1100.01 877.808 1115.44 853.96 1103.7 846.918C1091.81 839.876 1077.5 858.922 1071.55 866.604C1066.89 872.526 1062.39 878.768 1058.69 885.33C1053.23 894.933 1046.63 904.056 1040.85 913.499C1035.22 922.782 1030.08 932.225 1025.25 941.828C1024.45 943.268 1023.65 945.029 1022.04 945.509C1015.61 947.75 1022.04 929.024 1022.84 926.943C1027.5 913.819 1034.09 901.495 1039.08 888.371C1045.35 871.726 1051.14 854.441 1055.8 837.155C1057.57 830.593 1059.33 823.071 1057.73 816.349C1055.96 808.186 1045.51 804.505 1038.6 808.826C1033.93 811.707 1032.01 817.309 1030.56 822.431C1028.95 828.673 1027.66 834.755 1025.57 840.836C1020.75 854.761 1014 868.365 1008.05 882.129C1005 889.171 1002.1 896.374 999.692 903.576C997.441 910.778 996.316 918.46 993.101 925.343C992.458 926.623 991.654 928.063 990.368 928.704C988.76 929.664 986.67 929.184 985.223 928.063C979.275 923.422 984.098 915.259 985.706 909.658C988.599 898.934 989.564 888.051 991.172 877.168C993.262 862.763 995.994 848.359 998.084 834.114C999.37 825.312 999.21 812.828 988.439 810.427C978.311 808.186 972.845 818.269 970.273 826.272C966.736 837.635 966.736 849.959 964.324 861.643C961.592 874.127 959.662 886.771 957.09 899.255C954.679 911.258 948.891 922.462 945.998 934.305C942.943 947.269 942.943 960.553 932.333 970.317C928.796 973.518 924.295 975.918 919.472 975.918C906.129 975.758 895.679 961.514 890.374 950.79C884.908 939.907 877.995 929.504 868.671 921.501C863.205 916.86 857.096 912.219 850.023 910.298C843.753 908.537 834.751 910.138 831.857 916.7C828.159 925.022 837.323 935.106 842.306 940.867C863.366 964.235 876.549 994.484 876.549 994.484C876.549 994.484 894.875 1052.58 904.843 1069.39C910.309 1078.67 919.472 1085.71 922.526 1096.12C927.189 1111.96 923.491 1132.13 923.33 1148.77C923.169 1159.66 923.009 1170.54 923.009 1181.26C922.848 1200.79 922.526 1220.31 922.366 1239.68L1017.54 1240Z" fill="#A483FF" fill-opacity="0.15"/>
<path d="M1344.12 1240C1343.64 1219.13 1343.32 1198.26 1342.84 1177.39C1342.35 1150.9 1341.71 1124.57 1341.23 1098.08C1340.75 1075.12 1340.27 1052.16 1339.79 1029.2C1339.47 1012.35 1339.15 995.328 1338.83 978.47C1338.51 965.466 1336.91 951.98 1340.91 939.297C1344.92 926.774 1356.45 919.389 1362.54 907.99C1367.35 899.16 1369.43 889.046 1371.84 879.413C1374.4 869.62 1377.76 860.95 1382.73 852.281C1392.02 836.387 1402.12 819.208 1417.18 807.97C1428.07 799.782 1440.09 791.273 1448.42 780.196C1450.67 777.145 1453.55 772.971 1452.91 768.797C1451.79 760.93 1442.65 759.485 1436.57 762.214C1428.39 765.907 1421.67 773.292 1415.42 779.393C1401.16 793.521 1378.08 820.332 1369.75 812.305C1365.91 808.452 1370.07 799.943 1371.84 796.09C1375.2 788.544 1379.53 781.159 1384.49 774.577C1396.19 758.843 1408.53 742.949 1418.78 726.252C1423.11 719.028 1438.49 695.106 1426.79 688.042C1414.94 680.978 1400.68 700.083 1394.75 707.789C1390.1 713.73 1385.62 719.991 1381.93 726.573C1376.48 736.206 1369.91 745.357 1364.15 754.829C1358.54 764.141 1353.41 773.613 1348.6 783.246C1347.8 784.691 1347 786.457 1345.4 786.939C1338.99 789.186 1345.4 770.402 1346.2 768.315C1350.85 755.15 1357.42 742.788 1362.38 729.624C1368.63 712.927 1374.4 695.588 1379.05 678.249C1380.81 671.666 1382.57 664.121 1380.97 657.378C1379.21 649.19 1368.79 645.497 1361.9 649.832C1357.26 652.722 1355.33 658.341 1353.89 663.479C1352.29 669.74 1351.01 675.841 1348.92 681.941C1344.12 695.909 1337.39 709.555 1331.46 723.362C1328.42 730.426 1325.53 737.651 1323.13 744.875C1320.88 752.1 1319.76 759.806 1316.56 766.71C1315.92 767.994 1315.12 769.439 1313.83 770.081C1312.23 771.045 1310.15 770.563 1308.71 769.439C1302.78 764.783 1307.59 756.595 1309.19 750.976C1312.07 740.22 1313.03 729.303 1314.64 718.385C1316.72 703.936 1319.44 689.487 1321.53 675.198C1322.81 666.368 1322.65 653.846 1311.91 651.438C1301.82 649.19 1296.37 659.304 1293.81 667.332C1290.28 678.73 1290.28 691.093 1287.88 702.812C1285.15 715.335 1283.23 728.018 1280.67 740.541C1278.27 752.582 1272.5 763.82 1269.61 775.7C1266.57 788.705 1266.57 802.03 1255.99 811.823C1252.47 815.034 1247.98 817.442 1243.18 817.442C1229.88 817.282 1219.46 802.993 1214.18 792.237C1208.73 781.319 1201.84 770.884 1192.55 762.857C1187.1 758.201 1181.01 753.545 1173.96 751.618C1167.71 749.852 1158.74 751.458 1155.85 758.04C1152.17 766.389 1161.3 776.503 1166.27 782.283C1187.26 805.723 1200.4 836.066 1200.4 836.066C1200.4 836.066 1218.66 894.344 1228.6 911.201C1234.04 920.513 1243.18 927.577 1246.22 938.013C1250.87 953.907 1247.18 974.135 1247.02 990.832C1246.86 1001.75 1246.7 1012.67 1246.7 1023.42C1246.38 1050.56 1246.06 1077.69 1245.9 1104.82C1245.42 1149.77 1244.94 1194.73 1244.46 1239.68L1344.12 1240Z" fill="#A483FF" fill-opacity="0.15"/>
<path d="M388.064 1240C393.539 1223.33 398.853 1206.82 404.327 1190.15C412.54 1164.99 420.752 1139.99 428.965 1114.83C436.05 1093.03 443.296 1071.23 450.382 1049.43C455.696 1033.41 460.848 1017.22 466.162 1001.19C470.188 988.85 473.087 975.547 481.138 964.969C489.028 954.391 502.394 951.346 512.055 942.531C519.624 935.799 524.777 926.984 530.413 918.65C536.049 910.155 542.007 903.103 549.736 896.532C563.907 884.511 579.043 871.85 597.078 866.08C610.122 861.913 624.453 857.906 635.886 850.052C639.107 847.808 643.133 844.923 643.938 840.756C645.387 833.063 637.175 828.575 630.733 829.056C621.716 829.858 613.02 834.666 604.969 838.352C586.773 846.847 556.016 864.798 550.863 854.38C548.448 849.411 555.211 842.84 558.11 839.795C563.907 833.865 570.348 828.255 577.272 823.607C593.536 812.548 610.444 801.649 625.742 789.308C632.183 784.019 654.727 766.389 646.031 755.971C637.175 745.393 617.207 758.696 609.156 763.985C602.876 768.152 596.434 772.479 590.798 777.608C582.425 784.981 573.085 791.392 564.551 798.444C556.177 805.336 548.126 812.548 540.396 820.081C539.108 821.203 537.82 822.485 536.049 822.485C529.286 822.485 541.524 806.938 542.812 805.175C551.507 794.277 561.813 784.821 570.831 774.082C582.264 760.299 593.536 746.034 603.52 731.129C607.384 725.519 611.571 718.948 612.376 712.056C613.342 703.882 604.808 696.83 596.756 698.593C591.281 699.715 587.578 704.363 584.679 708.85C581.137 714.139 577.755 719.589 573.729 724.718C564.551 736.257 553.762 746.996 543.617 758.055C538.303 763.664 533.311 769.434 528.641 775.685C524.133 781.775 520.59 788.667 515.276 794.116C514.31 795.238 513.022 796.2 511.572 796.521C509.801 796.841 507.869 795.719 506.903 794.116C502.877 787.866 510.123 781.615 513.344 776.807C519.624 767.671 524.133 757.734 529.286 747.957C536.049 734.975 543.295 722.314 550.058 709.492C554.245 701.638 558.11 689.778 548.77 683.848C539.913 678.398 531.379 686.091 526.387 692.823C519.302 702.279 515.276 714.139 508.996 724.397C502.394 735.296 496.275 746.675 489.673 757.574C483.392 767.992 474.214 776.807 467.451 787.225C460.204 798.444 455.857 810.945 442.652 816.875C438.304 818.799 433.152 819.6 428.643 817.997C416.083 813.51 410.93 796.521 409.48 784.66C407.87 772.479 404.811 760.459 398.691 749.881C395.149 743.63 390.801 737.219 384.843 733.212C379.368 729.526 370.512 727.923 365.52 733.372C359.24 739.944 364.553 752.605 367.452 759.657C379.69 788.667 382.106 821.523 382.106 821.523C382.106 821.523 380.334 882.428 384.038 901.661C386.131 912.239 392.572 921.855 391.928 932.754C391.123 949.422 380.817 967.213 375.181 982.92C371.478 993.177 367.774 1003.43 364.07 1013.53C354.892 1039.02 345.552 1064.5 336.373 1089.98C333.636 1097.68 330.737 1105.53 328 1113.22V1239.68L388.064 1240Z" fill="#A483FF" fill-opacity="0.15"/>
</g>
<defs>
<clipPath id="clip0">
<rect width="1920" height="1080" fill="white"/>
</clipPath>
</defs>
</svg>