<svg width="15" height="38" viewBox="0 0 15 38" fill="none" xmlns="http://www.w3.org/2000/svg">
<path d="M6.38277 7.10072C8.29757 7.10072 9.89324 5.50506 9.89324 3.59027C9.89324 1.67547 8.29757 0.0798035 6.38277 0.0798035C4.46797 0.0798035 2.87231 1.67547 2.87231 3.59027C3.03188 5.50506 4.46797 7.10072 6.38277 7.10072Z" fill="#7638FF"/>
<path d="M11.9675 8.37729C11.8079 8.37729 11.8079 8.37729 11.9675 8.37729C11.8079 8.53686 11.8079 8.37729 11.9675 8.37729H10.2123H2.8722H1.27654C0.63827 8.37729 0 8.85599 0 9.65382V9.81339V9.97295V21.1426C0 21.7809 0.478704 22.4191 1.27654 22.4191C1.9148 22.4191 2.55307 21.9404 2.55307 21.1426V11.2495H3.19133V24.0148V36.3014C3.19133 37.0992 3.82959 37.8971 4.78699 37.8971C5.58482 37.8971 6.38266 37.2588 6.38266 36.3014V24.0148H7.65919V36.3014C7.65919 37.0992 8.29746 37.8971 9.25486 37.8971C10.0527 37.8971 10.8505 37.2588 10.8505 36.3014V24.0148V11.2495H11.4888V21.1426C11.4888 21.7809 11.9675 22.4191 12.7653 22.4191C13.4036 22.4191 14.0418 21.9404 14.0418 21.1426V9.97295V9.81339V9.65382C13.0844 9.01556 12.6057 8.37729 11.9675 8.37729Z" fill="#7638FF"/>
</svg>