<svg width="52" height="46" viewBox="0 0 52 46" fill="none" xmlns="http://www.w3.org/2000/svg">
<path d="M17.3585 2.25977C20.2552 2.25977 22.7302 2.75477 24.7835 3.74477C26.8368 4.73477 28.3769 6.0731 29.4035 7.75977C30.4668 9.44643 30.9985 11.3531 30.9985 13.4798C30.9985 16.0464 30.3935 18.0631 29.1835 19.5298C27.9735 20.9598 26.6169 21.9314 25.1135 22.4448V22.6648C29.5135 24.3148 31.7135 27.3764 31.7135 31.8498C31.7135 34.1964 31.1635 36.2681 30.0635 38.0648C28.9635 39.8614 27.3869 41.2548 25.3335 42.2448C23.3169 43.2348 20.9152 43.7298 18.1285 43.7298C13.3618 43.7298 9.62185 42.5931 6.90852 40.3198C4.19518 38.0464 2.80185 34.4898 2.72852 29.6498H14.6085C14.5352 30.9698 14.7185 31.9781 15.1585 32.6748C15.6352 33.3348 16.4418 33.6648 17.5785 33.6648C18.2385 33.6648 18.7885 33.4264 19.2285 32.9498C19.6685 32.4364 19.8885 31.7764 19.8885 30.9698C19.8885 29.9431 19.5402 29.1731 18.8435 28.6598C18.1835 28.1098 17.0468 27.8348 15.4335 27.8348H13.3985V17.9898H15.3785C17.8719 18.1364 19.1185 17.1464 19.1185 15.0198C19.1185 14.1031 18.9168 13.4248 18.5135 12.9848C18.1468 12.5448 17.6702 12.3248 17.0835 12.3248C15.7268 12.3248 15.0485 13.4614 15.0485 15.7348H3.16852C3.27852 11.3714 4.54352 8.03477 6.96352 5.72477C9.42018 3.41477 12.8852 2.25977 17.3585 2.25977ZM49.2714 31.6848V43.3448H37.1714V31.6848H49.2714Z" stroke="#7638FF" stroke-width="3.5"/>
</svg>