<svg width="54" height="49" viewBox="0 0 54 49" fill="none" xmlns="http://www.w3.org/2000/svg">
<path d="M2.27584 35.6017C7.57654 31.5958 11.7645 28.035 14.8397 24.9193C17.9554 21.8036 19.5132 19.0117 19.5132 16.5434C19.5132 14.5202 18.8051 13.5086 17.3889 13.5086C16.5796 13.5086 15.9929 13.8728 15.6288 14.6012C15.305 15.289 15.1432 16.6041 15.1432 18.5463H2.09375C2.21514 14.7832 3.02441 11.6878 4.52155 9.25999C6.05916 6.83219 8.04187 5.0518 10.4697 3.91882C12.8975 2.78585 15.5681 2.21936 18.4814 2.21936C23.5798 2.21936 27.3024 3.47373 29.6493 5.98246C32.0367 8.49119 33.2303 11.5664 33.2303 15.2081C33.2303 19.0521 31.9557 22.6736 29.4065 26.0725C26.8573 29.4715 23.6405 32.405 19.756 34.8733H33.6552V45.7377H2.27584V35.6017Z" stroke="#7638FF" stroke-width="3.5"/>
<path d="M51.9064 33.4773V46.3447H38.5535V33.4773H51.9064Z" stroke="#7638FF" stroke-width="3.5"/>
</svg>