<svg width="1920" height="1080" viewBox="0 0 1920 1080" fill="none" xmlns="http://www.w3.org/2000/svg">
<path d="M1887.61 131.063C1887.81 121.232 1893.63 60.8083 1944.42 41.0978C1974.01 29.5027 2005.43 37.3093 2026.34 51.0659C2027.76 51.9254 2061.59 75.6265 2067.12 112.545C2068.95 124.275 2067.82 137.868 2076.9 154.073C2079.43 158.714 2084.09 165.585 2091.17 172.066C2103.84 183.536 2117.48 187.179 2121.77 188.665C2148.93 197.652 2167.36 235.116 2173.74 258.239C2186.92 305.803 2167.69 364.971 2131.65 384.434C2113.12 394.396 2105.28 395.461 2076.35 409.67C2071.59 412.022 2060.86 424.983 2056.49 443.057C2052.1 461.283 2058.02 472.9 2059.91 486.205C2064.57 520.789 2038.96 555.894 2019.28 572.87C1982.05 605.292 1923.28 610.7 1878.94 584.337C1874.95 581.961 1817.66 546.747 1820.85 485.264C1823.21 441.185 1837.41 413.759 1837.41 413.759C1844.42 407.235 1857.54 396.858 1860.76 384.858C1864.4 371.207 1862.27 362.246 1857.85 351.971C1855.12 345.731 1848.87 316.054 1850.69 285.82C1852.45 254.012 1872.26 219.99 1890.61 210.156C1892.34 209.186 1896.42 207.192 1899.17 202.789C1906.38 191.286 1899.09 173.653 1897.08 168.782C1894.52 162.414 1893.38 162.697 1891.23 156.708C1891.46 156.276 1887.31 145.263 1887.61 131.063Z" fill="#875CFF"/>
<path opacity="0.3" d="M1836.83 -44.3921C1860.95 -52.6155 1892.44 -38.2802 1921.7 6.47561C1974.43 87.1344 1981.26 80.9189 1990.34 107.975C2010.13 166.992 1973.7 184.846 1991 239.521C2009.66 298.406 2054.68 286.698 2081.72 346.594C2115.43 421.258 2062.79 477.438 2105.44 523.616C2124.49 544.158 2148.38 547.668 2160.81 578.503C2166.43 592.733 2171.18 616.655 2163.03 630.234C2144.4 661.366 2065.07 623.546 1937.77 606.903C1895.11 601.271 1851.79 600.279 1808.73 598.597C1791.53 598.079 1780.45 597.778 1776.32 590.652C1762.76 566.694 1862.86 522.667 1869.03 450.716C1874.83 383.041 1792.01 356.274 1788.97 275.074C1787.02 221.593 1840.05 212.197 1836.19 161.715C1832.23 109.724 1781.56 101.251 1779.6 52.8641C1777.5 -1.39248 1801.17 -32.3173 1836.83 -44.3921Z" fill="#D7D1E9"/>
<path d="M-157.99 568.204C-161.51 556.332 -177.644 481.61 -124.253 438.525C-93.1892 413.29 -52.505 410.631 -22.1626 419.136C-20.1255 419.622 29.5256 435.113 50.2917 477.288C56.9813 490.659 60.8271 507.401 77.923 523.367C82.7292 527.969 90.9538 534.427 101.922 539.496C121.514 548.407 139.274 547.557 144.994 547.696C181.018 548.086 217.465 585.98 233.973 611.278C267.984 663.3 267.554 741.647 231.761 778.791C213.344 797.833 204.345 802.111 175.081 830.228C170.264 834.873 162.354 854.529 164.031 877.884C165.736 901.432 177.285 913.103 184.643 928.343C203.473 968.05 186.173 1019.97 169.062 1047.87C136.809 1101.01 68.3656 1129.99 5.07952 1115.33C-0.618697 1114.01 -82.8223 1093.68 -102.532 1018.7C-116.561 964.913 -110.031 926.578 -110.031 926.578C-104.113 916.068 -92.3438 898.596 -93.077 882.969C-93.9302 865.196 -99.9163 855.261 -109.15 844.625C-114.818 838.184 -133.672 804.971 -143.057 768.001C-153.111 729.163 -142.366 680.766 -124.113 661.944C-122.417 660.121 -118.283 656.167 -116.663 649.83C-112.424 633.273 -127.909 614.905 -132.194 609.834C-137.698 603.171 -138.959 603.947 -143.828 597.585C-143.721 596.979 -152.905 585.352 -157.99 568.204Z" fill="#875CFF"/>
<path opacity="0.3" d="M-21.6762 281.307C8.57344 279.391 40.2511 305.664 59.8764 366.154C95.2449 475.167 105.014 470.161 107.003 504.046C111.319 577.952 63.9312 587.081 66.7464 655.229C69.795 728.627 125.118 729.229 137.477 806.402C152.886 902.606 74.9464 950.668 109.503 1016.97C124.959 1046.48 151.286 1057.96 155.94 1097.23C157.948 1115.31 155.943 1144.25 142.35 1157.29C111.263 1187.21 32.0065 1119.07 -108.9 1060.27C-156.107 1040.51 -205.512 1025.86 -254.413 1010.51C-273.986 1004.55 -286.613 1000.75 -289.133 991.281C-297.22 959.558 -168.609 940.239 -139.099 859.584C-111.34 783.721 -198.043 727.178 -176.216 633.036C-161.781 571.047 -97.9882 576.799 -86.6719 517.658C-75.0096 456.752 -130.516 431.231 -117.676 375.086C-103.179 312.158 -66.3587 284.049 -21.6762 281.307Z" fill="#D7D1E9"/>
<mask id="path-5-inside-1" fill="white">
<path d="M1590.9 1103.18C1616.32 1142.4 1668.95 1153.57 1708.17 1128.15C1747.4 1102.73 1758.57 1050.1 1733.15 1010.88C1707.73 971.65 1655.1 960.476 1615.88 985.898C1576.65 1011.32 1565.48 1063.95 1590.9 1103.18ZM1733.82 1010.41C1746.28 1029.54 1750.51 1052.5 1745.75 1074.87C1741 1097.24 1727.76 1116.37 1708.64 1128.82C1689.51 1141.28 1666.55 1145.51 1644.18 1140.75C1621.81 1136 1602.68 1122.76 1590.23 1103.64C1577.77 1084.51 1573.54 1061.55 1578.3 1039.18C1583.05 1016.81 1596.29 997.685 1615.41 985.226C1634.54 972.766 1657.5 968.545 1679.87 973.299C1702.13 978.129 1721.37 991.288 1733.82 1010.41Z"/>
</mask>
<path d="M1679.87 973.299L1680.08 972.321L1680.08 972.32L1679.87 973.299ZM1590.06 1103.72C1615.78 1143.41 1669.03 1154.71 1708.72 1128.99L1707.63 1127.31C1668.87 1152.44 1616.86 1141.39 1591.74 1102.63L1590.06 1103.72ZM1708.72 1128.99C1748.41 1103.27 1759.71 1050.02 1733.99 1010.33L1732.31 1011.42C1757.44 1050.18 1746.39 1102.19 1707.63 1127.31L1708.72 1128.99ZM1733.99 1010.33C1708.27 970.642 1655.02 959.337 1615.33 985.058L1616.42 986.737C1655.18 961.615 1707.19 972.659 1732.31 1011.42L1733.99 1010.33ZM1615.33 985.058C1575.64 1010.78 1564.34 1064.03 1590.06 1103.72L1591.74 1102.63C1566.61 1063.87 1577.66 1011.86 1616.42 986.737L1615.33 985.058ZM1732.99 1010.96C1745.3 1029.86 1749.47 1052.56 1744.77 1074.66L1746.73 1075.08C1751.54 1052.45 1747.27 1029.22 1734.66 1009.87L1732.99 1010.96ZM1744.77 1074.66C1740.08 1096.77 1727 1115.67 1708.09 1127.99L1709.18 1129.66C1728.53 1117.06 1741.92 1097.71 1746.73 1075.08L1744.77 1074.66ZM1708.09 1127.99C1689.19 1140.3 1666.5 1144.47 1644.39 1139.77L1643.97 1141.73C1666.6 1146.54 1689.83 1142.27 1709.18 1129.66L1708.09 1127.99ZM1644.39 1139.77C1622.28 1135.08 1603.38 1122 1591.06 1103.09L1589.39 1104.18C1601.99 1123.53 1621.34 1136.92 1643.97 1141.73L1644.39 1139.77ZM1591.06 1103.09C1578.75 1084.19 1574.58 1061.5 1579.28 1039.39L1577.32 1038.97C1572.51 1061.6 1576.78 1084.83 1589.39 1104.18L1591.06 1103.09ZM1579.28 1039.39C1583.97 1017.28 1597.05 998.38 1615.96 986.063L1614.87 984.388C1595.52 996.99 1582.13 1016.34 1577.32 1038.97L1579.28 1039.39ZM1615.96 986.063C1634.86 973.75 1657.55 969.578 1679.66 974.277L1680.08 972.32C1657.45 967.512 1634.22 971.782 1614.87 984.388L1615.96 986.063ZM1679.66 974.276C1701.66 979.051 1720.67 992.057 1732.99 1010.96L1734.66 1009.87C1722.06 990.52 1702.59 977.207 1680.08 972.321L1679.66 974.276Z" fill="#875CFF" mask="url(#path-5-inside-1)"/>
<mask id="path-7-inside-2" fill="white">
<path d="M1603.23 1095.21C1624.26 1127.56 1667.67 1136.82 1700.1 1115.9C1732.45 1094.87 1741.71 1051.45 1720.79 1019.03C1699.75 986.675 1656.34 977.414 1623.91 998.338C1591.49 1019.26 1582.23 1062.67 1603.23 1095.21ZM1721.27 1018.53C1731.5 1034.41 1735.03 1053.24 1731.09 1071.75C1727.15 1090.26 1716.29 1106.12 1700.41 1116.35C1684.53 1126.58 1665.7 1130.11 1647.19 1126.17C1628.67 1122.23 1612.82 1111.36 1602.59 1095.49C1592.36 1079.61 1588.83 1060.78 1592.77 1042.27C1596.71 1023.75 1607.57 1007.9 1623.45 997.666C1639.33 987.434 1658.16 983.908 1676.67 987.846C1695.19 991.784 1711.04 1002.65 1721.27 1018.53Z"/>
</mask>
<path d="M1603.23 1095.21L1602.39 1095.76L1602.39 1095.76L1603.23 1095.21ZM1700.1 1115.9L1700.64 1116.74L1700.65 1116.74L1700.1 1115.9ZM1720.79 1019.03L1721.63 1018.48L1721.63 1018.48L1720.79 1019.03ZM1602.39 1095.76C1623.72 1128.57 1667.75 1137.96 1700.64 1116.74L1699.56 1115.06C1667.59 1135.69 1624.8 1126.56 1604.06 1094.67L1602.39 1095.76ZM1700.65 1116.74C1733.46 1095.4 1742.85 1051.37 1721.63 1018.48L1719.95 1019.57C1740.57 1051.53 1731.44 1094.33 1699.56 1115.06L1700.65 1116.74ZM1721.63 1018.48C1700.29 985.668 1656.26 976.275 1623.37 997.498L1624.46 999.178C1656.42 978.553 1699.22 987.683 1719.95 1019.57L1721.63 1018.48ZM1623.37 997.498C1590.48 1018.72 1581.09 1062.76 1602.39 1095.76L1604.07 1094.67C1583.36 1062.59 1592.5 1019.8 1624.46 999.178L1623.37 997.498ZM1720.43 1019.07C1730.52 1034.73 1734 1053.29 1730.11 1071.54L1732.07 1071.96C1736.06 1053.18 1732.49 1034.09 1722.11 1017.99L1720.43 1019.07ZM1730.11 1071.54C1726.23 1089.8 1715.52 1105.42 1699.87 1115.51L1700.95 1117.19C1717.05 1106.81 1728.08 1090.73 1732.07 1071.96L1730.11 1071.54ZM1699.87 1115.51C1684.21 1125.6 1665.65 1129.07 1647.4 1125.19L1646.98 1127.15C1665.75 1131.14 1684.85 1127.56 1700.95 1117.19L1699.87 1115.51ZM1647.4 1125.19C1629.14 1121.31 1613.52 1110.6 1603.43 1094.94L1601.75 1096.03C1612.13 1112.13 1628.21 1123.15 1646.98 1127.15L1647.4 1125.19ZM1603.43 1094.94C1593.34 1079.29 1589.86 1060.73 1593.75 1042.47L1591.79 1042.06C1587.8 1060.83 1591.38 1079.93 1601.75 1096.03L1603.43 1094.94ZM1593.75 1042.47C1597.63 1024.22 1608.34 1008.59 1623.99 998.506L1622.91 996.825C1606.81 1007.2 1595.78 1023.29 1591.79 1042.06L1593.75 1042.47ZM1623.99 998.506C1639.65 988.417 1658.21 984.942 1676.46 988.824L1676.88 986.868C1658.11 982.875 1639.01 986.452 1622.91 996.825L1623.99 998.506ZM1676.46 988.824C1694.72 992.707 1710.35 1003.42 1720.43 1019.07L1722.11 1017.99C1711.74 1001.88 1695.65 990.861 1676.88 986.868L1676.46 988.824Z" fill="#875CFF" mask="url(#path-7-inside-2)"/>
<mask id="path-9-inside-3" fill="white">
<path d="M1616.45 1086.64C1632.68 1111.74 1666.42 1118.91 1691.53 1102.68C1716.63 1086.45 1723.8 1052.71 1707.56 1027.6C1691.33 1002.5 1657.59 995.332 1632.49 1011.56C1607.39 1027.79 1600.14 1061.42 1616.45 1086.64ZM1707.94 1027.18C1724.32 1052.51 1717.2 1086.55 1691.76 1103.01C1666.43 1119.4 1632.39 1112.27 1615.93 1086.83C1599.54 1061.5 1606.67 1027.46 1632.11 1011C1657.55 994.541 1691.55 1001.85 1707.94 1027.18Z"/>
</mask>
<path d="M1616.45 1086.64L1617.29 1086.09L1617.29 1086.09L1616.45 1086.64ZM1691.76 1103.01L1692.3 1103.85L1692.3 1103.85L1691.76 1103.01ZM1615.93 1086.83L1615.09 1087.38L1615.09 1087.38L1615.93 1086.83ZM1615.61 1087.18C1632.14 1112.75 1666.5 1120.05 1692.07 1103.52L1690.98 1101.84C1666.34 1117.77 1633.22 1110.73 1617.29 1086.09L1615.61 1087.18ZM1692.07 1103.52C1717.64 1086.98 1724.93 1052.63 1708.4 1027.06L1706.72 1028.14C1722.66 1052.79 1715.62 1085.91 1690.98 1101.84L1692.07 1103.52ZM1708.4 1027.06C1691.87 1001.49 1657.51 994.193 1631.95 1010.72L1633.03 1012.4C1657.68 996.47 1690.8 1003.51 1706.72 1028.14L1708.4 1027.06ZM1631.95 1010.72C1606.38 1027.25 1599 1061.5 1615.61 1087.18L1617.29 1086.09C1601.28 1061.34 1608.39 1028.33 1633.03 1012.4L1631.95 1010.72ZM1707.1 1027.73C1723.18 1052.59 1716.19 1086.01 1691.21 1102.17L1692.3 1103.85C1718.21 1087.09 1725.46 1052.43 1708.78 1026.64L1707.1 1027.73ZM1691.21 1102.17C1666.34 1118.26 1632.92 1111.26 1616.76 1086.29L1615.09 1087.38C1631.85 1113.28 1666.51 1120.53 1692.3 1103.85L1691.21 1102.17ZM1616.76 1086.29C1600.68 1061.42 1607.68 1028 1632.65 1011.84L1631.56 1010.16C1605.65 1026.93 1598.4 1061.59 1615.09 1087.38L1616.76 1086.29ZM1632.65 1011.84C1657.63 995.68 1691.01 1002.86 1707.1 1027.73L1708.78 1026.64C1692.09 1000.85 1657.47 993.402 1631.56 1010.16L1632.65 1011.84Z" fill="#875CFF" mask="url(#path-9-inside-3)"/>
<path d="M1772.29 985.495L1772.65 985.262L1772.29 985.495C1791.41 1015.05 1797.92 1050.13 1790.64 1084.49C1783.36 1118.86 1763.07 1148.36 1733.63 1167.41L1733.9 1167.83L1733.63 1167.41C1704.08 1186.53 1669 1193.03 1634.63 1185.75C1600.27 1178.47 1570.76 1158.18 1551.72 1128.74C1532.6 1099.19 1526.1 1064.11 1533.37 1029.75C1540.65 995.381 1560.94 965.876 1590.38 946.833C1619.82 927.79 1655.02 921.208 1689.38 928.487C1723.75 935.766 1753.25 956.057 1772.29 985.495ZM1551.81 1128.48C1591.19 1189.27 1672.7 1206.62 1733.41 1167.12C1794.2 1127.75 1811.54 1046.24 1772.05 985.53C1732.67 924.742 1651.16 907.399 1590.45 946.89C1529.85 986.304 1512.43 1067.7 1551.81 1128.48Z" stroke="#875CFF"/>
<path d="M1760.08 993.38L1760.08 993.38C1777.08 1019.61 1782.86 1050.74 1776.28 1081.33L1776.28 1081.33C1771.73 1102.81 1761.4 1122.16 1746.57 1137.64C1783.04 1099.38 1790.02 1039.67 1760.02 993.45C1724.95 939.425 1652.48 923.959 1598.45 959.03C1551.01 989.826 1533.3 1049.47 1553.44 1100.13C1544.9 1078.83 1542.86 1055.53 1547.8 1032.53L1547.8 1032.53C1554.27 1002.02 1572.38 975.823 1598.49 958.896L1598.24 958.504L1598.49 958.896C1624.72 941.892 1655.85 936.117 1686.44 942.692C1716.84 949.231 1743.15 967.267 1760.08 993.38ZM1657 1173.69C1668.31 1174.2 1679.73 1173.07 1690.91 1170.23C1679.88 1173.05 1668.49 1174.22 1657 1173.69Z" stroke="#875CFF"/>
<path d="M1576.92 1112.25C1576.92 1112.26 1576.93 1112.27 1576.93 1112.27L1576.55 1112.52C1545.98 1065.3 1559.5 1002.16 1606.53 971.553L1576.92 1112.25Z" stroke="#875CFF"/>
<path d="M1747.98 1189.58C1674.94 1237.03 1576.81 1216.1 1529.47 1142.98C1529.47 1142.98 1529.47 1142.98 1529.47 1142.98L1747.98 1189.58ZM1747.98 1189.58C1821.1 1142.24 1842.03 1044.11 1794.58 971.067C1747.24 897.951 1649.11 877.021 1576.07 924.474L1747.98 1189.58ZM1794.97 970.766L1795.39 970.494L1794.97 970.766C1818.05 1006.33 1825.85 1048.59 1817.05 1090.1C1808.17 1131.49 1783.74 1166.97 1748.28 1189.97L1748.56 1190.39L1748.28 1189.97C1712.72 1213.05 1670.46 1220.86 1628.95 1212.05C1587.56 1203.17 1552.08 1178.74 1529.08 1143.28C1506 1107.72 1498.2 1065.46 1507 1023.95C1515.88 982.559 1540.31 947.083 1575.77 924.081C1611.33 901.001 1653.59 893.195 1695.1 902C1736.49 910.882 1771.97 935.314 1794.97 970.766Z" stroke="#875CFF"/>
<path d="M1740.78 1178.31L1741.06 1178.73L1740.78 1178.31C1673.89 1221.74 1584.19 1202.49 1540.85 1135.71C1497.43 1068.81 1516.67 979.118 1583.46 935.772L1583.46 935.771C1650.16 892.315 1739.97 911.48 1783.39 978.379C1826.81 1045.28 1807.57 1134.97 1740.78 1178.31ZM1541.02 1135.56C1584.28 1202.25 1673.76 1221.37 1740.45 1178.11L1583.84 936.549L1583.57 936.13C1583.57 936.13 1583.57 936.13 1583.57 936.13C1516.8 979.281 1497.76 1068.87 1541.02 1135.56Z" stroke="#875CFF"/>
<path d="M1632.78 921.665L1632.77 921.679L1632.76 921.695C1632.51 922.018 1632.15 922.422 1631.78 922.846C1631.45 923.212 1631.06 923.487 1630.6 923.799C1630.41 923.932 1630.19 924.044 1629.95 924.172L1629.93 924.178C1629.71 924.291 1629.47 924.418 1629.24 924.573C1628.77 924.743 1628.41 924.845 1627.89 924.919C1627.63 924.924 1627.36 924.947 1627.1 924.968L1627.09 924.968C1626.84 924.99 1626.6 925.009 1626.38 925.014C1626.1 924.963 1625.83 924.938 1625.59 924.915L1625.58 924.915C1625.31 924.89 1625.07 924.867 1624.81 924.819C1624.3 924.723 1623.89 924.559 1623.43 924.376C1622.97 924.191 1622.59 924.036 1622.25 923.729L1622.23 923.717L1622.22 923.705C1621.9 923.46 1621.49 923.103 1621.07 922.728C1620.7 922.404 1620.43 922.008 1620.11 921.552C1619.8 921.096 1619.53 920.697 1619.36 920.239C1619.18 919.75 1619.07 919.378 1618.99 918.835C1618.99 918.582 1618.97 918.307 1618.95 918.052L1618.95 918.043C1618.92 917.785 1618.9 917.546 1618.9 917.334C1618.95 917.047 1618.98 916.781 1619 916.536L1619 916.528C1619.02 916.262 1619.05 916.02 1619.1 915.762C1619.19 915.25 1619.35 914.838 1619.54 914.381C1619.72 913.92 1619.88 913.544 1620.18 913.198L1620.2 913.183L1620.21 913.168C1620.45 912.844 1620.81 912.441 1621.19 912.017C1621.51 911.651 1621.91 911.376 1622.36 911.063C1622.82 910.751 1623.22 910.48 1623.67 910.31C1624.16 910.128 1624.54 910.021 1625.08 909.944C1625.33 909.939 1625.61 909.916 1625.86 909.895L1625.87 909.894C1626.13 909.873 1626.37 909.854 1626.58 909.849C1626.87 909.899 1627.13 909.924 1627.38 909.947L1627.39 909.948C1627.65 909.973 1627.89 909.996 1628.15 910.044C1628.66 910.14 1629.08 910.304 1629.53 910.487C1629.99 910.672 1630.37 910.827 1630.72 911.133L1630.73 911.146L1630.75 911.158C1631.07 911.403 1631.47 911.759 1631.9 912.135C1632.26 912.459 1632.54 912.855 1632.85 913.311C1633.16 913.766 1633.43 914.165 1633.6 914.623C1633.79 915.113 1633.89 915.485 1633.97 916.027C1633.97 916.281 1634 916.555 1634.02 916.81L1634.02 916.82C1634.04 917.078 1634.06 917.317 1634.06 917.529C1634.01 917.815 1633.99 918.081 1633.97 918.326L1633.97 918.334C1633.94 918.601 1633.92 918.843 1633.87 919.101C1633.77 919.613 1633.61 920.025 1633.43 920.482C1633.24 920.943 1633.09 921.319 1632.78 921.665Z" fill="#FFA748" stroke="#FFA748"/>
<path d="M1572.71 988.048L1572.65 988.094L1572.6 988.158C1572.39 988.431 1572.23 988.547 1571.89 988.774C1571.56 989.002 1571.39 989.114 1571.07 989.209C1570.64 989.331 1570.27 989.437 1570.01 989.473L1569.97 989.478L1569.94 989.487C1569.57 989.594 1569.35 989.617 1569.08 989.566L1569 989.551L1568.92 989.562C1568.71 989.59 1568.43 989.543 1568.02 989.467C1567.61 989.391 1567.33 989.333 1567.15 989.233L1567.08 989.194L1567 989.179C1566.89 989.158 1566.76 989.105 1566.62 989.024C1566.54 988.984 1566.47 988.94 1566.4 988.894L1566.38 988.885C1566.32 988.849 1566.26 988.81 1566.2 988.775C1566.11 988.712 1566.04 988.659 1565.98 988.613C1565.75 988.448 1565.63 988.358 1565.5 988.169L1565.45 988.102L1565.38 988.053C1565.11 987.846 1565 987.682 1564.77 987.349C1564.54 987.017 1564.43 986.85 1564.33 986.521C1564.21 986.094 1564.11 985.721 1564.07 985.464L1564.07 985.429L1564.06 985.395C1564.01 985.252 1564 985.106 1564 984.938C1564 984.907 1564 984.872 1564 984.835C1564 984.698 1564 984.523 1563.98 984.373C1563.95 984.17 1564 983.882 1564.08 983.476C1564.1 983.327 1564.15 983.198 1564.2 983.034L1564.21 983.025C1564.26 982.869 1564.32 982.679 1564.36 982.455C1564.38 982.344 1564.44 982.219 1564.52 982.071C1564.56 981.999 1564.6 981.928 1564.65 981.852L1564.66 981.837C1564.69 981.779 1564.73 981.715 1564.77 981.652C1564.83 981.569 1564.88 981.497 1564.93 981.432C1565.1 981.205 1565.19 981.081 1565.37 980.952L1565.44 980.906L1565.49 980.841C1565.7 980.568 1565.86 980.453 1566.19 980.225C1566.53 979.997 1566.69 979.885 1567.02 979.791C1567.21 979.736 1567.38 979.699 1567.56 979.658L1567.56 979.658C1567.74 979.618 1567.93 979.575 1568.15 979.512C1568.52 979.405 1568.74 979.382 1569.01 979.433L1569.09 979.448L1569.17 979.437C1569.37 979.409 1569.66 979.457 1570.07 979.532C1570.47 979.608 1570.76 979.667 1570.94 979.766L1571.01 979.805L1571.09 979.82C1571.2 979.841 1571.32 979.894 1571.47 979.976C1571.54 980.016 1571.62 980.059 1571.69 980.105C1571.7 980.108 1571.7 980.111 1571.71 980.114C1571.76 980.15 1571.83 980.189 1571.89 980.225C1571.97 980.287 1572.05 980.34 1572.11 980.387C1572.34 980.552 1572.46 980.641 1572.59 980.831L1572.64 980.898L1572.7 980.947C1572.98 981.153 1573.09 981.318 1573.32 981.65C1573.55 981.982 1573.66 982.149 1573.75 982.478C1573.88 982.905 1573.98 983.278 1574.02 983.535L1574.02 983.57L1574.03 983.605C1574.14 983.976 1574.16 984.193 1574.11 984.467L1574.1 984.546L1574.11 984.627C1574.13 984.83 1574.09 985.117 1574.01 985.523C1573.98 985.672 1573.94 985.801 1573.88 985.965L1573.88 985.974C1573.83 986.131 1573.76 986.32 1573.72 986.544C1573.7 986.655 1573.65 986.781 1573.57 986.928C1573.53 987.001 1573.48 987.072 1573.44 987.147C1573.43 987.152 1573.43 987.157 1573.43 987.162C1573.39 987.221 1573.35 987.284 1573.32 987.347C1573.26 987.43 1573.2 987.503 1573.16 987.567C1572.99 987.794 1572.9 987.918 1572.71 988.048Z" fill="#FFA748" stroke="#FFA748"/>
</svg>
