<svg width="1440" height="741" viewBox="0 0 1440 741" fill="none" xmlns="http://www.w3.org/2000/svg">
<path fill-rule="evenodd" clip-rule="evenodd" d="M60.1619 148.465C118.156 148.915 155.863 206.311 203.296 239.683C251.718 273.752 321.439 289.546 340.403 345.634C359.386 401.779 321.902 460.045 295.79 513.25C273.104 559.473 242.341 599.836 200.748 630.189C159.079 660.598 110.646 674.607 60.1619 685.203C-3.95647 698.661 -72.0627 728.402 -131.016 699.824C-192.587 669.976 -223.434 600.74 -246.764 536.416C-270.774 470.219 -298.319 393.018 -264.744 331.121C-231.663 270.136 -145.072 271.451 -84.5933 237.451C-33.9822 208.999 2.10305 148.015 60.1619 148.465Z" fill="#875CFF" fill-opacity="0.15"/>
<path fill-rule="evenodd" clip-rule="evenodd" d="M156.988 267.707C153.961 308.673 111.634 332.64 85.8322 364.604C59.4914 397.234 45.0711 445.771 4.54497 456.553C-36.0226 467.345 -75.45 438.131 -111.833 417.19C-143.441 398.997 -170.53 375.369 -190.038 344.555C-209.582 313.685 -217.22 278.801 -222.349 242.626C-228.865 196.681 -246.702 147.158 -223.749 106.828C-199.778 64.7074 -149.403 46.1418 -102.852 32.659C-54.9459 18.7837 0.902697 2.92355 43.0791 29.5452C84.6348 55.7751 79.6588 116.911 100.862 161.243C118.606 198.342 160.019 226.695 156.988 267.707Z" fill="#875CFF" fill-opacity="0.15"/>
<path fill-rule="evenodd" clip-rule="evenodd" d="M1486.17 124.964C1539.54 170.57 1499.77 259.568 1509.76 329.053C1512.76 349.892 1519.25 368.489 1524.14 388.966C1529.87 412.939 1540.63 434.492 1540.84 459.139C1541.23 506.011 1565.32 570.217 1525.85 595.498C1488.56 619.385 1450.09 552.319 1406.37 545.266C1360.38 537.847 1301.83 588.599 1270.33 554.28C1238.67 519.792 1296.34 465.131 1290.2 418.72C1284.01 371.872 1228.75 338.422 1235.59 291.662C1243 240.966 1283.58 200.6 1326.23 172.223C1373.68 140.66 1442.85 87.9436 1486.17 124.964Z" fill="#875CFF" fill-opacity="0.15"/>
<path fill-rule="evenodd" clip-rule="evenodd" d="M1264.34 397.296C1314.71 368.549 1376.15 399.232 1433.93 404.257C1492.91 409.386 1561.13 388.015 1605.7 426.984C1650.33 465.992 1647.19 535.202 1651.34 594.324C1654.95 645.688 1648.63 696.043 1627.91 743.183C1607.16 790.41 1572.32 826.855 1534 861.38C1485.32 905.229 1441.37 965.161 1376.04 970.069C1307.81 975.194 1246.35 930.827 1193.87 886.931C1139.85 841.757 1077.25 788.845 1075.18 718.458C1073.15 649.108 1148.68 606.742 1183.89 546.961C1213.35 496.933 1213.92 426.075 1264.34 397.296Z" fill="#875CFF" fill-opacity="0.15"/>
</svg>