<svg width="35" height="32" viewBox="0 0 35 32" fill="none" xmlns="http://www.w3.org/2000/svg">
<path d="M19.805 0.112655C19.4097 -0.075921 18.9439 -0.0259371 18.6031 0.248974L7.55211 9.08931H2.27199C1.02013 9.08931 0 10.1094 0 11.3613V20.4493C0 21.7034 1.02013 22.7213 2.27199 22.7213H7.55211L18.6008 31.5616C18.8076 31.7252 19.0598 31.8093 19.312 31.8093C19.4801 31.8093 19.6482 31.7706 19.805 31.6957C20.198 31.5071 20.448 31.1095 20.448 30.6733V1.13732C20.448 0.701101 20.198 0.303502 19.805 0.112655Z" fill="white"/>
<path d="M26.1983 7.87151C25.7507 7.43074 25.0327 7.43756 24.592 7.8806C24.1512 8.32818 24.1557 9.04613 24.6011 9.48917C26.3187 11.1841 27.2638 13.4629 27.2638 15.9053C27.2638 18.3477 26.3187 20.6265 24.6011 22.3214C24.1557 22.7599 24.1512 23.4801 24.592 23.9277C24.8146 24.1526 25.1077 24.264 25.3985 24.264C25.6871 24.264 25.9756 24.1549 26.1983 23.9345C28.3521 21.8147 29.5358 18.9611 29.5358 15.9053C29.5358 12.8495 28.3521 9.99583 26.1983 7.87151Z" fill="white"/>
<path d="M29.4041 4.67031C28.9565 4.22727 28.2386 4.23181 27.7955 4.67712C27.3548 5.12244 27.3593 5.84266 27.8024 6.28342C30.3856 8.84396 31.8079 12.261 31.8079 15.9053C31.8079 19.5496 30.3856 22.9644 27.8024 25.5249C27.3593 25.968 27.3548 26.6882 27.7955 27.1335C28.0205 27.3562 28.3113 27.4675 28.6021 27.4675C28.8906 27.4675 29.1815 27.3584 29.4041 27.1381C32.4213 24.1504 34.0799 20.1608 34.0799 15.9053C34.0799 11.6499 32.4213 7.66025 29.4041 4.67031Z" fill="white"/>
</svg>