<svg width="35" height="33" viewBox="0 0 35 33" fill="none" xmlns="http://www.w3.org/2000/svg">
<path d="M20.459 1.09593C20.0637 0.907355 19.5979 0.957339 19.2571 1.23225L8.20616 10.0726H2.92605C1.67418 10.0726 0.654053 11.0927 0.654053 12.3446V21.4326C0.654053 22.6867 1.67418 23.7046 2.92605 23.7046H8.20616L19.2549 32.5449C19.4616 32.7085 19.7138 32.7925 19.966 32.7925C20.1341 32.7925 20.3023 32.7539 20.459 32.6789C20.8521 32.4904 21.102 32.0928 21.102 31.6565V2.1206C21.102 1.68438 20.8521 1.28678 20.459 1.09593Z" fill="#7638FF" fill-opacity="0.5"/>
<path d="M26.8523 8.85474C26.4047 8.41398 25.6867 8.42079 25.246 8.86383C24.8052 9.31141 24.8097 10.0294 25.2551 10.4724C26.9727 12.1673 27.9178 14.4461 27.9178 16.8885C27.9178 19.3309 26.9727 21.6097 25.2551 23.3046C24.8097 23.7431 24.8052 24.4633 25.246 24.9109C25.4686 25.1359 25.7617 25.2472 26.0525 25.2472C26.3411 25.2472 26.6296 25.1381 26.8523 24.9177C29.0061 22.798 30.1898 19.9444 30.1898 16.8885C30.1898 13.8327 29.0061 10.9791 26.8523 8.85474Z" fill="#7638FF" fill-opacity="0.5"/>
<path d="M30.0582 5.65359C29.6106 5.21055 28.8927 5.21509 28.4496 5.66041C28.0088 6.10572 28.0134 6.82594 28.4564 7.26671C31.0397 9.82724 32.462 13.2443 32.462 16.8886C32.462 20.5329 31.0397 23.9477 28.4564 26.5082C28.0134 26.9513 28.0088 27.6715 28.4496 28.1168C28.6745 28.3395 28.9654 28.4508 29.2562 28.4508C29.5447 28.4508 29.8355 28.3417 30.0582 28.1213C33.0754 25.1337 34.734 21.1441 34.734 16.8886C34.734 12.6332 33.0754 8.64353 30.0582 5.65359Z" fill="#7638FF" fill-opacity="0.5"/>
</svg>